<svg width="18" height="13" viewBox="0 0 18 13" fill="none" xmlns="http://www.w3.org/2000/svg">
<path d="M14.8982 0H2.12832C0.952955 0 0 0.951469 0 2.125V10.625C0 11.7985 0.952955 12.75 2.12832 12.75H14.8982C16.0736 12.75 17.0266 11.7985 17.0266 10.625V2.125C17.0266 0.951469 16.0736 0 14.8982 0ZM11.395 5.67046L15.9 1.81578C15.9312 1.91539 15.9624 2.015 15.9624 2.125V10.625C15.9624 10.6987 15.9343 10.7641 15.9198 10.8335L11.395 5.67046ZM14.8982 1.0625C14.9689 1.0625 15.0313 1.08949 15.0978 1.10297L8.51328 6.73818L1.92879 1.10297C1.9953 1.08949 2.05765 1.0625 2.12832 1.0625H14.8982ZM1.10626 10.8325C1.0917 10.763 1.06416 10.6987 1.06416 10.625V2.125C1.06416 2.015 1.09585 1.91539 1.12705 1.81578L5.6305 5.66943L1.10626 10.8325ZM2.12832 11.6875C2.02077 11.6875 1.92307 11.6564 1.82487 11.6263L6.439 6.36149L8.16723 7.84005C8.26646 7.92622 8.39014 7.96875 8.51328 7.96875C8.63642 7.96875 8.7601 7.92622 8.85933 7.84009L10.5876 6.36152L15.2017 11.6263C15.104 11.6564 15.0063 11.6875 14.8982 11.6875H2.12832Z" fill="#4493C9"/>
</svg>
