<svg width="16" height="18" viewBox="0 0 16 18" fill="none" xmlns="http://www.w3.org/2000/svg">
<path d="M5.28719 1.93312L5.28719 1.93312L3.96486 0.459532C3.96485 0.459531 3.96485 0.459531 3.96485 0.45953C3.66356 0.123755 3.16473 -0.1 2.757 -0.1C2.34928 -0.1 1.85044 0.123755 1.54916 0.459529C1.54915 0.45953 1.54915 0.459531 1.54915 0.459532L0.699092 1.4068L0.699089 1.4068C0.116666 2.05589 -0.179151 2.81975 -0.0816849 3.69352C0.0148898 4.97854 0.637376 6.46701 1.41862 7.83896C2.20147 9.21373 3.1502 10.4827 3.91045 11.3299L4.28825 11.751L4.36269 11.6842L4.28826 11.751C5.00092 12.5452 6.09244 13.5766 7.29145 14.4365C8.48739 15.2943 9.80418 15.9918 10.9651 16.0996L10.965 16.1H10.9743H10.9749H10.9754H10.976H10.9765H10.9771H10.9777H10.9782H10.9788H10.9793H10.9799H10.9804H10.981H10.9815H10.9821H10.9826H10.9832H10.9837H10.9843H10.9848H10.9854H10.986H10.9865H10.9871H10.9876H10.9882H10.9887H10.9893H10.9898H10.9904H10.9909H10.9915H10.992H10.9926H10.9932H10.9937H10.9943H10.9948H10.9954H10.9959H10.9965H10.997H10.9976H10.9981H10.9987H10.9992H10.9998H11.0003H11.0009H11.0015H11.002H11.0026H11.0031H11.0037H11.0042H11.0048H11.0053H11.0059H11.0064H11.007H11.0075H11.0081H11.0086H11.0092H11.0098H11.0103H11.0109H11.0114H11.012H11.0125H11.0131H11.0136H11.0142H11.0147H11.0153H11.0158H11.0164H11.0169H11.0175H11.0181H11.0186H11.0192H11.0197H11.0203H11.0208H11.0214H11.0219H11.0225H11.023H11.0236H11.0241H11.0247H11.0252H11.0258H11.0264H11.0269H11.0275H11.028H11.0286H11.0291H11.0297H11.0302H11.0308H11.0313H11.0319H11.0324H11.033H11.0336H11.0341H11.0347H11.0352H11.0358H11.0363H11.0369H11.0374H11.038H11.0385H11.0391H11.0396H11.0402H11.0407H11.0413H11.0419H11.0424H11.043H11.0435H11.0441H11.0446H11.0452H11.0457H11.0463H11.0468H11.0474H11.0479H11.0485H11.049H11.0496H11.0502H11.0507H11.0513H11.0518H11.0524H11.0529H11.0535H11.054H11.0546H11.0551H11.0557H11.0562H11.0568H11.0573H11.0579H11.0585H11.059H11.0596H11.0601H11.0607H11.0612H11.0618H11.0623H11.0629H11.0634H11.064H11.0645H11.0651H11.0656H11.0662H11.0668H11.0673H11.0679H11.0684H11.069H11.0695H11.0701H11.0706H11.0712H11.0717H11.0723H11.0728H11.0734H11.074H11.0745H11.0751H11.0756H11.0762H11.0767H11.0773H11.0778H11.0784H11.0789H11.0795H11.08H11.0806H11.0811H11.0817H11.0823H11.0828H11.0834H11.0839H11.0845H11.085H11.0856H11.0861H11.0867H11.0872H11.0878H11.0883H11.0889H11.0894H11.09H11.0906H11.0911H11.0917H11.0922H11.0928H11.0933H11.0939H11.0944H11.095H11.0955H11.0961H11.0966H11.0972H11.0977H11.0983H11.0989H11.0994H11.1H11.1005H11.1011H11.1016H11.1022H11.1027H11.1033H11.1038H11.1044H11.1049H11.1055H11.1061H11.1066H11.1072H11.1077H11.1083H11.1088H11.1094H11.1099H11.1105H11.111H11.1116H11.1121H11.1127H11.1132H11.1138H11.1144H11.1149H11.1155H11.116H11.1166H11.1171H11.1177H11.1182H11.1188H11.1193H11.1199H11.1204H11.121H11.1215H11.1221H11.1227H11.1232H11.1238H11.1243H11.1249H11.1254H11.126H11.1265H11.1271H11.1276H11.1282H11.1287H11.1293H11.1298H11.1304H11.131H11.1315H11.1321H11.1326H11.1332H11.1337H11.1343H11.1348H11.1354H11.1359H11.1365H11.137H11.1376H11.1382H11.1387H11.1393H11.1398H11.1404H11.1409H11.1415H11.142H11.1426H11.1431H11.1437H11.1442H11.1448H11.1453H11.1459H11.1465H11.147H11.1476H11.1481H11.1487H11.1492H11.1498H11.1503H11.1509H11.1514H11.152H11.1525H11.1531H11.1536H11.1542H11.1548H11.1553H11.1559H11.1564H11.157H11.1575H11.1581H11.1586H11.1592H11.1597H11.1603H11.1608H11.1614H11.1619H11.1625H11.1631H11.1636H11.1642H11.1647H11.1653H11.1658H11.1664H11.1669H11.1675H11.168H11.1686H11.1691H11.1697H11.1702H11.1708H11.1714H11.1719H11.1725H11.173H11.1736H11.1741H11.1747H11.1752H11.1758H11.1763H11.1769H11.1774H11.178H11.1786H11.1791H11.1797H11.1802H11.1808H11.1813H11.1819H11.1824H11.183H11.1835H11.1841H11.1846H11.1852H11.1857H11.1863H11.1869H11.1874H11.188H11.1885H11.1891H11.1896H11.1902H11.1907H11.1913H11.1918H11.1924H11.1929H11.1935H11.194H11.1946H11.1952H11.1957H11.1963H11.1968H11.1974H11.1979H11.1985H11.199H11.1996H11.2001H11.2007H11.2012H11.2018H11.2023H11.2029H11.2035H11.204H11.2046H11.2051H11.2057H11.2062H11.2068H11.2073H11.2079H11.2084H11.209H11.2095H11.2101H11.2107H11.2112H11.2118H11.2123H11.2129H11.2134H11.214H11.2145H11.2151H11.2156H11.2162H11.2167H11.2173H11.2178H11.2184H11.219H11.2195H11.2201H11.2206H11.2212H11.2217H11.2223H11.2228H11.2234H11.2239H11.2245H11.225H11.2256H11.2261H11.2267H11.2273H11.2278H11.2284H11.2289H11.2295H11.23H11.2306H11.2311H11.2317H11.2322H11.2328H11.2333H11.2339H11.2344H11.235H11.2356H11.2361H11.2367H11.2372H11.2378H11.2383H11.2389H11.2394H11.24H11.2405H11.2411H11.2416H11.2422H11.2428H11.2433H11.2439H11.2444H11.245H11.2455H11.2461H11.2466H11.2472H11.2477H11.2483H11.2488H11.2494H11.2499H11.2505H11.2511H11.2516H11.2522H11.2527H11.2533H11.2538H11.2544H11.2549H11.2555H11.256H11.2566H11.2571H11.2577C11.9502 16.1 12.6376 15.7698 13.1267 15.2246L13.9768 14.2774L13.9024 14.2106L13.9768 14.2774C14.2777 13.942 14.4746 13.3913 14.4746 12.9473C14.4746 12.5033 14.2777 11.9528 13.9768 11.6174L12.56 10.0385C12.2587 9.70271 11.7599 9.47895 11.3521 9.47895C10.9444 9.47895 10.4456 9.70271 10.1443 10.0385L9.42574 10.8392C9.41651 10.8364 9.40549 10.8327 9.39252 10.8278C9.35121 10.8122 9.29723 10.7873 9.23058 10.751C9.09743 10.6783 8.91874 10.563 8.69729 10.3941C8.25461 10.0566 7.64522 9.50847 6.89288 8.67001L6.89287 8.67L6.60952 8.35429C6.60951 8.35429 6.60951 8.35429 6.60951 8.35429C5.80975 7.46298 5.34152 6.81003 5.07392 6.36914C4.9401 6.14867 4.85687 5.98191 4.80746 5.86547C4.78274 5.8072 4.76679 5.76227 4.75721 5.73005C4.75553 5.7244 4.7541 5.71932 4.75289 5.71479L5.38164 5.01412L5.30721 4.94733L5.38164 5.01412C5.68561 4.67535 5.87947 4.12283 5.87947 3.47362C5.87947 2.92329 5.68189 2.37299 5.28719 1.93312ZM4.09936 5.09102L4.17379 5.15781L4.09936 5.09102C3.90675 5.30567 3.86541 5.58423 3.91887 5.88736C3.972 6.18865 4.12023 6.52608 4.32325 6.87879C4.72964 7.58482 5.37279 8.38067 5.986 9.11665L5.98595 9.11669L5.98841 9.11943L6.27176 9.43513C6.27176 9.43514 6.27176 9.43514 6.27177 9.43514C6.9817 10.2263 7.6001 10.8365 8.12625 11.2497C8.64763 11.6591 9.0961 11.8895 9.46311 11.8895C9.61765 11.8895 9.72976 11.8606 9.81874 11.8111C9.90429 11.7634 9.96104 11.7001 10.0069 11.649L10.0098 11.6458L10.8599 10.6984C11.0298 10.509 11.286 10.4157 11.4466 10.4157C11.6071 10.4157 11.8634 10.509 12.0333 10.6984L13.4501 12.2773C13.6206 12.4673 13.7079 12.7584 13.7079 12.9473C13.7079 13.2365 13.6239 13.4238 13.4501 13.6175L12.6001 14.5647L12.6745 14.6315L12.6001 14.5647C12.2456 14.9598 11.7101 15.162 11.1683 15.1632C10.1578 15.0591 8.95014 14.4155 7.82139 13.6031C6.69415 12.7917 5.66049 11.8229 5.00383 11.0911L4.62603 10.67L4.5516 10.7368L4.62603 10.67C3.96995 9.93886 3.1004 8.76057 2.37171 7.47695C1.64168 6.19096 1.06027 4.81174 0.967631 3.67609L0.967855 3.67607L0.966862 3.66943C0.878631 3.07945 1.14124 2.58203 1.50911 2.17206L1.43468 2.10527L1.50911 2.17205L2.35917 1.22466C2.52908 1.0353 2.78536 0.942031 2.94591 0.942031C3.10645 0.942031 3.36275 1.0353 3.53265 1.22466L4.85497 2.69837C5.03694 2.90117 5.20721 3.19375 5.20721 3.47362C5.20721 3.60587 5.1463 3.77197 5.05437 3.93845C4.96388 4.10235 4.85034 4.25412 4.76052 4.35423L4.09936 5.09102Z" transform="translate(0.692383 1)" fill="#4493C9" stroke="#4493C9" stroke-width="0.2"/>
</svg>
