<svg width="20" height="20" viewBox="0 0 20 20" fill="none" xmlns="http://www.w3.org/2000/svg">
<path d="M17.0723 2.92561C13.1729 -0.975203 6.82802 -0.975203 2.92862 2.92561C1.56048 4.29422 0.624618 6.01361 0.22212 7.89799C-0.169726 9.73282 -0.0413718 11.6338 0.593276 13.3954C0.669528 13.6069 0.902832 13.7166 1.11422 13.6403C1.32575 13.5641 1.43538 13.3308 1.35913 13.1192C0.776038 11.5007 0.658131 9.75413 1.01823 8.06805C1.38776 6.3378 2.24743 4.75861 3.50424 3.50136C7.08629 -0.0819116 12.9147 -0.0819116 16.4967 3.50136C18.2026 5.20787 19.1575 7.47621 19.1855 9.8887C19.2135 12.2968 18.3164 14.5832 16.6595 16.3268C16.6399 16.3474 16.6205 16.3682 16.6011 16.389C16.5668 16.4257 16.5325 16.4625 16.4967 16.4983C12.9147 20.0816 7.08629 20.0816 3.50424 16.4983C3.48518 16.4792 3.46659 16.4598 3.44821 16.4404C3.44726 16.4028 3.44644 16.3658 3.44644 16.3292C3.44644 16.2473 3.448 16.1656 3.45099 16.0843C3.452 16.057 3.45404 16.0301 3.4554 16.003C3.45804 15.9489 3.46055 15.8948 3.46449 15.841C3.46686 15.8089 3.47032 15.7771 3.47317 15.7451C3.47744 15.6966 3.48145 15.6481 3.48674 15.5998C3.49047 15.5658 3.49535 15.532 3.49963 15.4981C3.50539 15.4522 3.51089 15.4063 3.51767 15.3607C3.52283 15.3259 3.52894 15.2915 3.53463 15.257C3.54189 15.2125 3.54895 15.1681 3.55716 15.1239C3.5636 15.089 3.571 15.0544 3.57805 15.0196C3.5868 14.9762 3.59542 14.9328 3.60505 14.8897C3.61285 14.8548 3.62154 14.82 3.62988 14.7853C3.64006 14.7429 3.65017 14.7004 3.66116 14.6584C3.67032 14.6235 3.68022 14.5889 3.68985 14.5542C3.70145 14.5127 3.71299 14.4711 3.7254 14.4298C3.73578 14.3952 3.74691 14.3609 3.7579 14.3265C3.77092 14.2857 3.78395 14.2449 3.79772 14.2044C3.80939 14.1703 3.8216 14.1364 3.83381 14.1024C3.84826 14.0623 3.86278 14.0221 3.87797 13.9822C3.89086 13.9485 3.90423 13.9151 3.91766 13.8816C3.93347 13.8422 3.94941 13.8027 3.96596 13.7637C3.98007 13.7304 3.99459 13.6974 4.00925 13.6644C4.02641 13.6257 4.04378 13.5871 4.06169 13.5487C4.07695 13.5161 4.09255 13.4837 4.10836 13.4513C4.12695 13.4132 4.14574 13.3752 4.16501 13.3375C4.18136 13.3056 4.19798 13.2739 4.21487 13.2423C4.23482 13.2048 4.2551 13.1675 4.27579 13.1304C4.29323 13.0991 4.31086 13.0681 4.32877 13.0372C4.35008 13.0005 4.37172 12.964 4.39377 12.9276C4.41229 12.897 4.43101 12.8666 4.45001 12.8364C4.47266 12.8004 4.49566 12.7646 4.519 12.7291C4.53854 12.6993 4.55821 12.6697 4.57822 12.6402C4.60217 12.605 4.62666 12.5701 4.65136 12.5353C4.67191 12.5063 4.69247 12.4774 4.7135 12.4488C4.7388 12.4143 4.76465 12.3802 4.79063 12.3463C4.81214 12.3182 4.83358 12.2901 4.85556 12.2623C4.88222 12.2286 4.90949 12.1953 4.93683 12.1621C4.95915 12.1349 4.98147 12.1078 5.00426 12.081C5.03235 12.048 5.06104 12.0155 5.08981 11.983C5.11301 11.9569 5.13608 11.9306 5.15968 11.9048C5.18913 11.8726 5.21918 11.8411 5.2493 11.8095C5.27332 11.7843 5.2972 11.759 5.32162 11.7341C5.35249 11.7027 5.38403 11.672 5.41551 11.6412C5.4402 11.6171 5.46469 11.5928 5.4898 11.569C5.52222 11.5383 5.5554 11.5084 5.58844 11.4784C5.61367 11.4555 5.63857 11.4324 5.66415 11.4099C5.69827 11.3798 5.73328 11.3506 5.76808 11.3212C5.79359 11.2997 5.81882 11.2779 5.84467 11.2567C5.88069 11.2272 5.9176 11.1987 5.95437 11.1699C5.98001 11.1499 6.00525 11.1294 6.03116 11.1097C6.0699 11.0803 6.10945 11.052 6.14893 11.0235C6.17383 11.0054 6.19825 10.9869 6.22349 10.9692C6.26704 10.9386 6.31162 10.9091 6.35605 10.8794C6.37796 10.8649 6.3994 10.8497 6.42145 10.8353C6.47938 10.7977 6.53834 10.7612 6.5977 10.7253C6.60692 10.7197 6.61588 10.7137 6.62517 10.7082C6.69383 10.667 6.76343 10.6271 6.83385 10.5883C6.85793 10.5751 6.8827 10.5627 6.90705 10.5497C6.95379 10.5247 7.0004 10.4995 7.04796 10.4757C7.07842 10.4603 7.10962 10.4459 7.14035 10.4311C7.17916 10.4123 7.21783 10.3933 7.25711 10.3752C7.99487 11.0801 8.97903 11.4792 10.0006 11.4792C11.0221 11.4792 12.0063 11.0801 12.7441 10.375C14.1843 11.0418 15.363 12.2381 16.003 13.693C16.0935 13.8988 16.3335 13.9924 16.5394 13.9018C16.7452 13.8112 16.8386 13.5709 16.7481 13.3651C16.0481 11.7737 14.8295 10.502 13.287 9.73431C13.7345 9.07759 13.9766 8.30212 13.9766 7.50187C13.9766 5.30871 12.193 3.52444 10.0006 3.52444C9.77582 3.52444 9.59353 3.70679 9.59353 3.93162C9.59353 4.15645 9.77582 4.3388 10.0006 4.3388C11.7441 4.3388 13.1626 5.75777 13.1626 7.50187C13.1626 8.28176 12.8728 9.03274 12.3468 9.6163C12.3467 9.61637 12.3466 9.61643 12.3466 9.6165C11.7459 10.2828 10.8908 10.6649 10.0005 10.6649C9.11017 10.6649 8.25504 10.2828 7.65445 9.6165C7.65438 9.61637 7.65425 9.6163 7.65411 9.61623C7.12814 9.03247 6.83846 8.28169 6.83846 7.50193C6.83846 6.65065 7.17163 5.85203 7.77663 5.25333C7.93646 5.09514 7.93782 4.83733 7.77968 4.67751C7.62161 4.51756 7.36389 4.51633 7.20406 4.67439C6.44336 5.427 6.02438 6.43118 6.02438 7.50166C6.02438 8.3011 6.26589 9.07603 6.71269 9.73241C6.70869 9.73438 6.70482 9.73655 6.70088 9.73859C6.66913 9.75447 6.63813 9.7713 6.60665 9.78752C6.55842 9.81249 6.51005 9.83733 6.46249 9.86332C6.42884 9.88165 6.39594 9.90092 6.36263 9.91972C6.3182 9.94489 6.27369 9.96994 6.22987 9.99593C6.19588 10.0162 6.16243 10.0371 6.12879 10.0578C6.08672 10.0837 6.04466 10.1095 6.00321 10.1362C5.96936 10.158 5.93612 10.1804 5.90267 10.2026C5.86244 10.2294 5.82228 10.2564 5.78266 10.2839C5.74935 10.3072 5.71645 10.3308 5.68355 10.3545C5.64488 10.3824 5.60635 10.4104 5.56829 10.439C5.53566 10.4635 5.50343 10.4883 5.47128 10.5133C5.43396 10.5423 5.39692 10.5715 5.36029 10.6011C5.32854 10.6268 5.29706 10.6528 5.26572 10.6789C5.2297 10.709 5.19394 10.7395 5.15853 10.7703C5.1278 10.797 5.09727 10.8239 5.06701 10.8511C5.03208 10.8825 4.99761 10.9143 4.96335 10.9463C4.93378 10.9739 4.90426 11.0016 4.87509 11.0298C4.84124 11.0625 4.80793 11.0957 4.77469 11.129C4.74633 11.1574 4.71798 11.1858 4.69016 11.2146C4.65726 11.2488 4.62497 11.2835 4.59274 11.3183C4.56581 11.3473 4.53867 11.3762 4.51222 11.4057C4.47999 11.4416 4.44865 11.4781 4.41717 11.5146C4.39187 11.5439 4.36636 11.5729 4.34153 11.6026C4.30958 11.6408 4.27864 11.6798 4.2475 11.7186C4.22437 11.7475 4.20076 11.776 4.17803 11.8052C4.14533 11.8473 4.11372 11.8902 4.08197 11.933C4.06203 11.9598 4.04154 11.9862 4.022 12.0134C3.98184 12.069 3.94297 12.1255 3.90443 12.1822C3.89432 12.1972 3.88361 12.2117 3.87356 12.2267C3.8256 12.2983 3.779 12.3708 3.73361 12.4441C3.71794 12.4694 3.70322 12.4953 3.68789 12.5207C3.65851 12.5695 3.629 12.6183 3.60071 12.6677C3.58307 12.6986 3.56638 12.73 3.54922 12.7612C3.52446 12.806 3.49956 12.8506 3.47582 12.896C3.45818 12.9295 3.44149 12.9635 3.42433 12.9974C3.40221 13.0411 3.38003 13.0847 3.35879 13.1289C3.3419 13.1641 3.32582 13.1996 3.30947 13.235C3.28939 13.2786 3.26924 13.3222 3.24998 13.3662C3.2341 13.4026 3.2189 13.4392 3.20364 13.4758C3.18526 13.5197 3.16701 13.5636 3.1495 13.6078C3.13478 13.645 3.12067 13.6824 3.10656 13.7198C3.08987 13.7642 3.07339 13.8087 3.05751 13.8534C3.04408 13.8913 3.03105 13.9294 3.01816 13.9677C3.00304 14.0125 2.98831 14.0575 2.97407 14.1028C2.96193 14.1413 2.95019 14.1799 2.93866 14.2185C2.92509 14.2642 2.91199 14.31 2.89931 14.356C2.88859 14.3949 2.87807 14.4337 2.86797 14.4728C2.85596 14.5193 2.84456 14.566 2.83344 14.6128C2.82414 14.6519 2.81491 14.6909 2.8063 14.7302C2.79585 14.7776 2.78615 14.8253 2.77665 14.8731C2.76885 14.9122 2.76091 14.9513 2.75372 14.9906C2.74484 15.0393 2.73683 15.0883 2.72889 15.1374C2.72265 15.176 2.71607 15.2147 2.71044 15.2535C2.70305 15.3041 2.6968 15.355 2.69043 15.4059C2.68575 15.4436 2.68059 15.4813 2.67645 15.5192C2.67062 15.5725 2.66614 15.6262 2.66146 15.6799C2.65834 15.7156 2.65461 15.7513 2.65203 15.7872C2.64769 15.8471 2.64484 15.9073 2.64192 15.9676C2.6405 15.9975 2.63826 16.0273 2.63717 16.0572C2.63392 16.1476 2.63208 16.2384 2.63208 16.3295C2.63208 16.4278 2.63541 16.5208 2.63941 16.6234C2.64036 16.6472 2.64369 16.6703 2.64843 16.6928C2.64884 16.6946 2.64904 16.6963 2.64945 16.6981C2.65447 16.7203 2.66153 16.7416 2.67001 16.7622C2.67082 16.7643 2.67157 16.7663 2.67245 16.7683C2.6812 16.7887 2.69165 16.8081 2.70345 16.8266C2.70495 16.8289 2.70637 16.8312 2.70786 16.8334C2.72001 16.8515 2.73351 16.8686 2.74823 16.8844C2.74931 16.8856 2.75006 16.887 2.75114 16.8882L2.80487 16.9454C2.84544 16.9888 2.88601 17.0321 2.92834 17.0744C4.87808 19.0248 7.43912 20 10.0002 20C12.5613 20 15.1224 19.0248 17.0721 17.0744C17.1145 17.0321 17.155 16.9887 17.1956 16.9454L17.2493 16.8882C19.0531 14.99 20.0298 12.501 19.9993 9.87954C19.969 7.25287 18.9294 4.78331 17.0723 2.92561Z" fill="#B2C6DB"/>
</svg>
