<svg width="17" height="13" viewBox="0 0 17 13" fill="none" xmlns="http://www.w3.org/2000/svg">
<path d="M14.875 0H2.125C0.951469 0 0 0.951469 0 2.125V10.625C0 11.7985 0.951469 12.75 2.125 12.75H14.875C16.0485 12.75 17 11.7985 17 10.625V2.125C17 0.951469 16.0485 0 14.875 0ZM11.3773 5.67046L15.8752 1.81578C15.9064 1.91539 15.9375 2.015 15.9375 2.125V10.625C15.9375 10.6987 15.9095 10.7641 15.895 10.8335L11.3773 5.67046ZM14.875 1.0625C14.9456 1.0625 15.0078 1.08949 15.0742 1.10297L8.5 6.73818L1.92578 1.10297C1.99219 1.08949 2.05444 1.0625 2.125 1.0625H14.875ZM1.10454 10.8325C1.08999 10.763 1.0625 10.6987 1.0625 10.625V2.125C1.0625 2.015 1.09414 1.91539 1.12529 1.81578L5.62172 5.66943L1.10454 10.8325ZM2.125 11.6875C2.01762 11.6875 1.92007 11.6564 1.82202 11.6263L6.42896 6.36149L8.15449 7.84005C8.25357 7.92622 8.37705 7.96875 8.5 7.96875C8.62295 7.96875 8.74643 7.92622 8.84551 7.84009L10.571 6.36152L15.178 11.6263C15.0805 11.6564 14.9829 11.6875 14.875 11.6875H2.125Z" fill="#B2C6DB"/>
</svg>
