<svg width="21" height="18" viewBox="0 0 21 18" fill="none" xmlns="http://www.w3.org/2000/svg">
<path d="M16.8802 18C16.7815 18 16.6838 17.9655 16.6054 17.8989L12.3491 14.2822H2.91921C1.30954 14.2822 0 12.9623 0 11.34V2.94222C0 1.31986 1.30954 0 2.91921 0H18.0808C19.6905 0 21 1.31991 21 2.94222V11.34C21 12.9623 19.6905 14.2822 18.0808 14.2822H17.3063V17.5704C17.3063 17.7376 17.2102 17.8895 17.0598 17.9599C17.0024 17.9868 16.9411 18 16.8802 18ZM2.91921 0.859119C1.77956 0.859119 0.852386 1.79358 0.852386 2.94222V11.34C0.852386 12.4886 1.77956 13.4231 2.91921 13.4231H12.5047C12.6053 13.4231 12.7026 13.4589 12.7795 13.5242L16.4539 16.6465V13.8526C16.4539 13.6154 16.6448 13.4231 16.8801 13.4231H18.0808C19.2204 13.4231 20.1476 12.4886 20.1476 11.34V2.94222C20.1476 1.79358 19.2204 0.859119 18.0808 0.859119H2.91921Z" fill="#B2C6DB"/>
<path d="M14.1549 0.859119H0.426171C0.1908 0.859119 0 0.666762 0 0.429559C0 0.192313 0.1908 0 0.426171 0H14.1548C14.3902 0 14.581 0.192313 14.581 0.429559C14.581 0.666762 14.3902 0.859119 14.1549 0.859119Z" transform="translate(3.20947 3.95129)" fill="#B2C6DB"/>
<path d="M14.1549 0.859119H0.426171C0.1908 0.859119 0 0.666762 0 0.429559C0 0.192314 0.1908 0 0.426171 0H14.1548C14.3902 0 14.581 0.192314 14.581 0.429559C14.581 0.666762 14.3902 0.859119 14.1549 0.859119Z" transform="translate(3.20947 6.70203)" fill="#B2C6DB"/>
<path d="M14.1549 0.859119H0.426171C0.1908 0.859119 0 0.666762 0 0.429559C0 0.192314 0.1908 0 0.426171 0H14.1548C14.3902 0 14.581 0.192271 14.581 0.429559C14.581 0.666762 14.3902 0.859119 14.1549 0.859119Z" transform="translate(3.20947 9.45264)" fill="#B2C6DB"/>
</svg>
