<svg width="21" height="29" viewBox="0 0 21 29" fill="none" xmlns="http://www.w3.org/2000/svg">
<path d="M3.50615 -0.2C1.49673 -0.2 -0.2 1.49476 -0.2 3.5027C-0.2 5.51064 1.49673 7.20541 3.50615 7.20541C5.51557 7.20541 7.2123 5.51064 7.2123 3.5027C7.2123 1.3434 5.51006 -0.2 3.50615 -0.2ZM3.50615 5.63784C2.30163 5.63784 1.22263 4.55963 1.22263 3.35676C1.22263 2.15389 2.30163 1.07567 3.50615 1.07567C4.71067 1.07567 5.78967 2.15389 5.78967 3.35676C5.78967 4.69797 4.71845 5.63784 3.50615 5.63784Z" transform="translate(7.12012 6.98364)" fill="#4493C9" stroke="#4493C9" stroke-width="0.4"/>
<path d="M9.3158 27.114L9.48011 27.3508L9.64442 27.114L17.2381 16.1721C20.2185 12.2968 19.7708 6.05743 16.3415 2.63148C14.5506 0.842385 12.0162 -0.2 9.48011 -0.2C6.94401 -0.2 4.40949 0.842384 2.61865 2.63148C0.897927 4.35053 -0.0303152 6.77147 -0.178771 9.23731C-0.327169 11.7022 0.302374 14.2301 1.72061 16.1701L9.3158 27.114ZM16.1854 15.3513L16.1853 15.3512L16.1814 15.357L9.62616 24.8955L3.07097 15.357L3.07129 15.3568L3.06359 15.3469C1.78524 13.7151 1.24562 11.5046 1.38917 9.3355C1.53274 7.16609 2.35809 5.06266 3.77794 3.6442C5.34678 2.07688 7.48696 1.22162 9.62616 1.22162C11.7654 1.22162 13.9055 2.07688 15.4744 3.6442C16.8928 5.06121 17.6826 7.16324 17.8083 9.33386C17.934 11.5042 17.3941 13.7177 16.1854 15.3513Z" transform="translate(1 1)" fill="#4493C9" stroke="#4493C9" stroke-width="0.4"/>
</svg>
