<svg width="18" height="18" viewBox="0 0 18 18" fill="none" xmlns="http://www.w3.org/2000/svg">
<path d="M5.94967 1.8585L5.94966 1.85849L4.47627 0.384911C4.47627 0.384909 4.47627 0.384907 4.47627 0.384905C4.12261 0.0311803 3.54536 -0.2 3.07194 -0.2C2.59853 -0.2 2.02127 0.0311795 1.66762 0.384904C1.66762 0.384906 1.66761 0.384908 1.66761 0.384911L0.72045 1.33217L0.720443 1.33218C0.0559525 1.99681 -0.291902 2.79099 -0.179024 3.70491C-0.068562 5.01633 0.636324 6.52182 1.50862 7.89662C2.38511 9.27803 3.44686 10.5526 4.29865 11.4045L4.7196 11.8256L4.71961 11.8256C5.51805 12.6242 6.73932 13.6598 8.08106 14.5234C9.41767 15.3838 10.8986 16.0899 12.2113 16.1993L12.2196 16.2H12.228H12.2286H12.2292H12.2298H12.2304H12.231H12.2317H12.2323H12.2329H12.2335H12.2341H12.2347H12.2354H12.236H12.2366H12.2372H12.2378H12.2384H12.2391H12.2397H12.2403H12.2409H12.2415H12.2421H12.2428H12.2434H12.244H12.2446H12.2452H12.2458H12.2465H12.2471H12.2477H12.2483H12.2489H12.2495H12.2502H12.2508H12.2514H12.252H12.2526H12.2532H12.2539H12.2545H12.2551H12.2557H12.2563H12.2569H12.2576H12.2582H12.2588H12.2594H12.26H12.2606H12.2613H12.2619H12.2625H12.2631H12.2637H12.2643H12.265H12.2656H12.2662H12.2668H12.2674H12.268H12.2687H12.2693H12.2699H12.2705H12.2711H12.2717H12.2724H12.273H12.2736H12.2742H12.2748H12.2754H12.2761H12.2767H12.2773H12.2779H12.2785H12.2791H12.2798H12.2804H12.281H12.2816H12.2822H12.2828H12.2835H12.2841H12.2847H12.2853H12.2859H12.2865H12.2872H12.2878H12.2884H12.289H12.2896H12.2902H12.2909H12.2915H12.2921H12.2927H12.2933H12.2939H12.2946H12.2952H12.2958H12.2964H12.297H12.2976H12.2983H12.2989H12.2995H12.3001H12.3007H12.3013H12.302H12.3026H12.3032H12.3038H12.3044H12.305H12.3057H12.3063H12.3069H12.3075H12.3081H12.3087H12.3094H12.31H12.3106H12.3112H12.3118H12.3124H12.3131H12.3137H12.3143H12.3149H12.3155H12.3161H12.3168H12.3174H12.318H12.3186H12.3192H12.3198H12.3205H12.3211H12.3217H12.3223H12.3229H12.3235H12.3242H12.3248H12.3254H12.326H12.3266H12.3272H12.3279H12.3285H12.3291H12.3297H12.3303H12.3309H12.3316H12.3322H12.3328H12.3334H12.334H12.3346H12.3353H12.3359H12.3365H12.3371H12.3377H12.3383H12.339H12.3396H12.3402H12.3408H12.3414H12.342H12.3427H12.3433H12.3439H12.3445H12.3451H12.3457H12.3464H12.347H12.3476H12.3482H12.3488H12.3494H12.3501H12.3507H12.3513H12.3519H12.3525H12.3531H12.3538H12.3544H12.355H12.3556H12.3562H12.3568H12.3575H12.3581H12.3587H12.3593H12.3599H12.3605H12.3612H12.3618H12.3624H12.363H12.3636H12.3642H12.3649H12.3655H12.3661H12.3667H12.3673H12.3679H12.3686H12.3692H12.3698H12.3704H12.371H12.3716H12.3723H12.3729H12.3735H12.3741H12.3747H12.3753H12.376H12.3766H12.3772H12.3778H12.3784H12.379H12.3797H12.3803H12.3809H12.3815H12.3821H12.3827H12.3834H12.384H12.3846H12.3852H12.3858H12.3864H12.3871H12.3877H12.3883H12.3889H12.3895H12.3901H12.3908H12.3914H12.392H12.3926H12.3932H12.3938H12.3945H12.3951H12.3957H12.3963H12.3969H12.3975H12.3982H12.3988H12.3994H12.4H12.4006H12.4012H12.4019H12.4025H12.4031H12.4037H12.4043H12.4049H12.4056H12.4062H12.4068H12.4074H12.408H12.4086H12.4093H12.4099H12.4105H12.4111H12.4117H12.4123H12.413H12.4136H12.4142H12.4148H12.4154H12.416H12.4167H12.4173H12.4179H12.4185H12.4191H12.4197H12.4204H12.421H12.4216H12.4222H12.4228H12.4234H12.4241H12.4247H12.4253H12.4259H12.4265H12.4271H12.4278H12.4284H12.429H12.4296H12.4302H12.4308H12.4315H12.4321H12.4327H12.4333H12.4339H12.4345H12.4352H12.4358H12.4364H12.437H12.4376H12.4382H12.4389H12.4395H12.4401H12.4407H12.4413H12.4419H12.4426H12.4432H12.4438H12.4444H12.445H12.4456H12.4463H12.4469H12.4475H12.4481H12.4487H12.4493H12.45H12.4506H12.4512H12.4518H12.4524H12.453H12.4537H12.4543H12.4549H12.4555H12.4561H12.4567H12.4574H12.458H12.4586H12.4592H12.4598H12.4604H12.4611H12.4617H12.4623H12.4629H12.4635H12.4641H12.4648H12.4654H12.466H12.4666H12.4672H12.4678H12.4685H12.4691H12.4697H12.4703H12.4709H12.4715H12.4722H12.4728H12.4734H12.474H12.4746H12.4752H12.4759H12.4765H12.4771H12.4777H12.4783H12.4789H12.4796H12.4802H12.4808H12.4814H12.482H12.4826H12.4833H12.4839H12.4845H12.4851H12.4857H12.4863H12.487H12.4876H12.4882H12.4888H12.4894H12.49H12.4907H12.4913H12.4919H12.4925H12.4931H12.4937H12.4944H12.495H12.4956H12.4962H12.4968H12.4974H12.4981H12.4987H12.4993H12.4999H12.5005H12.5011H12.5018H12.5024H12.503H12.5036H12.5042H12.5048H12.5055H12.5061H12.5067H12.5073H12.5079H12.5085H12.5092H12.5098H12.5104H12.511H12.5116H12.5122H12.5129H12.5135H12.5141H12.5147H12.5153H12.5159H12.5166H12.5172H12.5178H12.5184H12.519H12.5196H12.5203H12.5209H12.5215H12.5221H12.5227H12.5233H12.524H12.5246H12.5252H12.5258H12.5264H12.527H12.5277H12.5283H12.5289H12.5295H12.5301H12.5307H12.5314H12.532H12.5326H12.5332H12.5338H12.5344H12.5351H12.5357H12.5363H12.5369H12.5375H12.5381H12.5388H12.5394H12.54H12.5406H12.5412H12.5418H12.5425H12.5431H12.5437C13.3356 16.2 14.1226 15.8615 14.6847 15.2993C14.6847 15.2993 14.6847 15.2992 14.6847 15.2992L15.6319 14.352L15.6319 14.352C15.9855 13.9982 16.2167 13.4208 16.2167 12.9473C16.2167 12.4738 15.9855 11.8965 15.6319 11.5428L14.0533 9.96386C13.6996 9.61014 13.1223 9.37895 12.6489 9.37895C12.1755 9.37895 11.5983 9.61013 11.2446 9.96386C11.2446 9.96386 11.2446 9.96386 11.2446 9.96386L10.4801 10.7284C10.4394 10.714 10.386 10.6916 10.3196 10.6591C10.1758 10.5887 9.98033 10.4757 9.73619 10.3086C9.24832 9.97471 8.57368 9.43047 7.73877 8.59539L7.73875 8.59537L7.42304 8.27967C6.53498 7.39143 6.01765 6.74327 5.72395 6.30898C5.57706 6.09179 5.48716 5.92964 5.43487 5.81905C5.42087 5.78945 5.40979 5.76401 5.40114 5.7426L6.05489 5.08874L6.0549 5.08874C6.41584 4.72772 6.63967 4.14622 6.63967 3.47362C6.63967 2.89261 6.40694 2.31587 5.94967 1.8585ZM4.50913 5.0164L4.50913 5.0164C4.26407 5.26151 4.21554 5.5804 4.28001 5.90855C4.34311 6.2297 4.51672 6.58045 4.74532 6.93688C5.20376 7.65167 5.92652 8.45376 6.60883 9.18871L6.60872 9.1888L6.61398 9.19406L6.92969 9.50976C6.9297 9.50976 6.9297 9.50977 6.92971 9.50977C7.72242 10.3026 8.41575 10.917 9.00813 11.3345C9.59257 11.7464 10.1099 11.9895 10.5441 11.9895C10.7246 11.9895 10.8622 11.9592 10.9756 11.9026C11.0838 11.8485 11.156 11.7762 11.2072 11.7249L11.2117 11.7204L11.0703 11.579L11.2117 11.7204L12.1589 10.773C12.3295 10.6024 12.5932 10.5157 12.7542 10.5157C12.9151 10.5157 13.1789 10.6024 13.3494 10.773L14.9281 12.3519C15.0986 12.5225 15.1852 12.7863 15.1852 12.9473C15.1852 13.0819 15.163 13.1851 15.1235 13.2741C15.0836 13.3639 15.0215 13.4494 14.9281 13.5428C14.9281 13.5428 14.9281 13.5428 14.9281 13.5428L13.9809 14.4901L13.9809 14.4901C13.6078 14.8633 13.036 15.0612 12.4475 15.0632C11.3416 14.9598 10.0111 14.3256 8.75827 13.5162C7.5077 12.7084 6.36101 11.7437 5.63394 11.0165L5.21298 10.5954L5.21298 10.5954C4.48714 9.86943 3.52281 8.69689 2.71476 7.4194C1.90314 6.13627 1.26707 4.77492 1.16629 3.66612L1.16562 3.6587L1.16439 3.65135C1.0747 3.11309 1.33824 2.64852 1.74 2.24668L1.74001 2.24667L2.68717 1.29928C2.68717 1.29928 2.68717 1.29928 2.68717 1.29928C2.85772 1.1287 3.12145 1.04203 3.28242 1.04203C3.4434 1.04203 3.70715 1.1287 3.87769 1.29928L5.35106 2.77299L5.4925 2.63159L5.35107 2.77299C5.54858 2.97055 5.71346 3.23763 5.71346 3.47362C5.71346 3.57452 5.65898 3.7194 5.55895 3.88199C5.46273 4.03838 5.34124 4.18416 5.24582 4.2796C5.24582 4.27961 5.24582 4.27961 5.24582 4.27961L4.50913 5.0164Z" transform="translate(1 1)" fill="#4493C9" stroke="#4493C9" stroke-width="0.4"/>
</svg>
