<svg width="22" height="15" viewBox="0 0 22 15" fill="none" xmlns="http://www.w3.org/2000/svg">
<path d="M11.4289 9.21567L11.4285 9.21605C11.0192 9.62513 10.5224 9.83822 10.0169 9.83822C9.51142 9.83822 9.0155 9.62507 8.60805 9.21567C7.94479 8.54923 7.28176 7.88302 6.61483 7.21686C5.07108 8.77147 3.53421 10.316 2.01323 11.8442L11.4289 9.21567ZM11.4289 9.21567L11.429 9.21556C12.0952 8.54615 12.7616 7.8765 13.4281 7.20279M11.4289 9.21567L13.4281 7.20279M18.3264 11.8442C17.546 11.0585 16.7646 10.2733 15.9792 9.48427C15.1746 8.67576 14.3659 7.86319 13.5502 7.04189C13.5443 7.05156 13.5365 7.06438 13.5234 7.08467C13.5025 7.11712 13.4718 7.16137 13.4292 7.20174C13.4288 7.20209 13.4285 7.20244 13.4281 7.20279M18.3264 11.8442L13.357 7.1312L13.4256 7.2051C13.4264 7.20432 13.4273 7.20354 13.4281 7.20275C13.4281 7.20276 13.4281 7.20277 13.4281 7.20279M18.3264 11.8442H18.3259H18.2928H18.2596H18.2264H18.1932H18.16H18.1269H18.0937H18.0605H18.0445M18.3264 11.8442H18.0445M18.0445 11.8442H18.0273M18.0445 11.8442H18.0273M18.0273 11.8442H17.9941M18.0273 11.8442H17.9941M17.9941 11.8442H17.961M17.9941 11.8442H17.961M17.961 11.8442H17.9278M17.961 11.8442H17.9278M17.9278 11.8442H17.8946M17.9278 11.8442H17.8946M17.8946 11.8442H17.8614M17.8946 11.8442H17.8614M17.8614 11.8442H17.8282M17.8614 11.8442H17.8282M17.8282 11.8442H17.795M17.8282 11.8442H17.795M17.795 11.8442H17.7619M17.795 11.8442H17.7619M17.7619 11.8442H17.7287M17.7619 11.8442H17.7287M17.7287 11.8442H17.6955M17.7287 11.8442H17.6955M17.6955 11.8442H17.6623M17.6955 11.8442H17.6623M17.6623 11.8442H17.6291M17.6623 11.8442H17.6291M17.6291 11.8442H17.5959M17.6291 11.8442H17.5959M17.5959 11.8442H17.5627M17.5959 11.8442H17.5627M17.5627 11.8442H17.5295M17.5627 11.8442H17.5295M17.5295 11.8442H17.4964M17.5295 11.8442H17.4964M17.4964 11.8442H17.4632M17.4964 11.8442H17.4632M17.4632 11.8442H17.43M17.4632 11.8442H17.43M17.43 11.8442H17.3968M17.43 11.8442H17.3968M17.3968 11.8442H17.3636M17.3968 11.8442H17.3636M17.3636 11.8442H17.3304M17.3636 11.8442H17.3304M17.3304 11.8442H17.2972M17.3304 11.8442H17.2972M17.2972 11.8442H17.264M17.2972 11.8442H17.264M17.264 11.8442H17.2308M17.264 11.8442H17.2308M17.2308 11.8442H17.1976M17.2308 11.8442H17.1976M17.1976 11.8442H17.1644M17.1976 11.8442H17.1644M17.1644 11.8442H17.1312M17.1644 11.8442H17.1312M17.1312 11.8442H17.0981M17.1312 11.8442H17.0981M17.0981 11.8442H17.0649M17.0981 11.8442H17.0649M17.0649 11.8442H17.0317M17.0649 11.8442H17.0317M17.0317 11.8442H16.9985M17.0317 11.8442H16.9985M16.9985 11.8442H16.9653M16.9985 11.8442H16.9653M16.9653 11.8442H16.9321M16.9653 11.8442H16.9321M16.9321 11.8442H16.8989M16.9321 11.8442H16.8989M16.8989 11.8442H16.8657M16.8989 11.8442H16.8657M16.8657 11.8442H16.8325M16.8657 11.8442H16.8325M16.8325 11.8442H16.7993M16.8325 11.8442H16.7993M16.7993 11.8442H16.7661M16.7993 11.8442H16.7661M16.7661 11.8442H16.7329M16.7661 11.8442H16.7329M16.7329 11.8442H16.6997M16.7329 11.8442H16.6997M16.6997 11.8442H16.6665M16.6997 11.8442H16.6665M16.6665 11.8442H16.6333M16.6665 11.8442H16.6333M16.6333 11.8442H16.6001M16.6333 11.8442H16.6001M16.6001 11.8442H16.5669M16.6001 11.8442H16.5669M16.5669 11.8442H16.5337M16.5669 11.8442H16.5337M16.5337 11.8442H16.5005M16.5337 11.8442H16.5005M16.5005 11.8442H16.4673M16.5005 11.8442H16.4673M16.4673 11.8442H16.4341M16.4673 11.8442H16.4341M16.4341 11.8442H16.4009M16.4341 11.8442H16.4009M16.4009 11.8442H16.3677M16.4009 11.8442H16.3677M16.3677 11.8442H16.3345M16.3677 11.8442H16.3345M16.3345 11.8442H16.3013M16.3345 11.8442H16.3013M16.3013 11.8442H16.2681M16.3013 11.8442H16.2681M16.2681 11.8442H16.2348M16.2681 11.8442H16.2348M16.2348 11.8442H16.2016M16.2348 11.8442H16.2016M16.2016 11.8442H16.1684M16.2016 11.8442H16.1684M16.1684 11.8442H16.1352M16.1684 11.8442H16.1352M16.1352 11.8442H16.102M16.1352 11.8442H16.102M16.102 11.8442H16.0688M16.102 11.8442H16.0688M16.0688 11.8442H16.0356M16.0688 11.8442H16.0356M16.0356 11.8442H16.0024M16.0356 11.8442H16.0024M16.0024 11.8442H15.9692M16.0024 11.8442H15.9692M15.9692 11.8442H15.936M15.9692 11.8442H15.936M15.936 11.8442H15.9028M15.936 11.8442H15.9028M15.9028 11.8442H15.8696M15.9028 11.8442H15.8696M15.8696 11.8442H15.8364M15.8696 11.8442H15.8364M15.8364 11.8442H15.8032M15.8364 11.8442H15.8032M15.8032 11.8442H15.7699M15.8032 11.8442H15.7699M15.7699 11.8442H15.7367M15.7699 11.8442H15.7367M15.7367 11.8442H15.7035M15.7367 11.8442H15.7035M15.7035 11.8442H15.6703M15.7035 11.8442H15.6703M15.6703 11.8442H15.6371M15.6703 11.8442H15.6371M15.6371 11.8442H15.6039M15.6371 11.8442H15.6039M15.6039 11.8442H15.5707M15.6039 11.8442H15.5707M15.5707 11.8442H15.5375M15.5707 11.8442H15.5375M15.5375 11.8442H15.5043M15.5375 11.8442H15.5043M15.5043 11.8442H15.471M15.5043 11.8442H15.471M15.471 11.8442H15.4378M15.471 11.8442H15.4378M15.4378 11.8442H15.4046M15.4378 11.8442H15.4046M15.4046 11.8442H15.3714M15.4046 11.8442H15.3714M15.3714 11.8442H15.3382M15.3714 11.8442H15.3382M15.3382 11.8442H15.305M15.3382 11.8442H15.305M15.305 11.8442H15.2718M15.305 11.8442H15.2718M15.2718 11.8442H15.2386M15.2718 11.8442H15.2386M15.2386 11.8442H15.2053M15.2386 11.8442H15.2053M15.2053 11.8442H15.1721M15.2053 11.8442H15.1721M15.1721 11.8442H15.1389M15.1721 11.8442H15.1389M15.1389 11.8442H15.1057M15.1389 11.8442H15.1057M15.1057 11.8442H15.0725M15.1057 11.8442H15.0725M15.0725 11.8442H15.0393M15.0725 11.8442H15.0393M15.0393 11.8442H15.006M15.0393 11.8442H15.006M15.006 11.8442H14.9728M15.006 11.8442H14.9728M14.9728 11.8442H14.9396M14.9728 11.8442H14.9396M14.9396 11.8442H14.9064M14.9396 11.8442H14.9064M14.9064 11.8442H14.8732M14.9064 11.8442H14.8732M14.8732 11.8442H14.84M14.8732 11.8442H14.84M14.84 11.8442H14.8067M14.84 11.8442H14.8067M14.8067 11.8442H14.7735M14.8067 11.8442H14.7735M14.7735 11.8442H14.7403M14.7735 11.8442H14.7403M14.7403 11.8442H14.7071M14.7403 11.8442H14.7071M14.7071 11.8442H14.6739M14.7071 11.8442H14.6739M14.6739 11.8442H14.6407M14.6739 11.8442H14.6407M14.6407 11.8442H14.6074M14.6407 11.8442H14.6074M14.6074 11.8442H14.5742M14.6074 11.8442H14.5742M14.5742 11.8442H14.541M14.5742 11.8442H14.541M14.541 11.8442H14.5078M14.541 11.8442H14.5078M14.5078 11.8442H14.4746M14.5078 11.8442H14.4746M14.4746 11.8442H14.4413M14.4746 11.8442H14.4413M14.4413 11.8442H14.4081M14.4413 11.8442H14.4081M14.4081 11.8442H14.3749M14.4081 11.8442H14.3749M14.3749 11.8442H14.3417M14.3749 11.8442H14.3417M14.3417 11.8442H14.3085M14.3417 11.8442H14.3085M14.3085 11.8442H14.2752M14.3085 11.8442H14.2752M14.2752 11.8442H14.242M14.2752 11.8442H14.242M14.242 11.8442H14.2088M14.242 11.8442H14.2088M14.2088 11.8442H14.1756M14.2088 11.8442H14.1756M14.1756 11.8442H14.1424M14.1756 11.8442H14.1424M14.1424 11.8442H14.1091M14.1424 11.8442H14.1091M14.1091 11.8442H14.0759M14.1091 11.8442H14.0759M14.0759 11.8442H14.0427M14.0759 11.8442H14.0427M14.0427 11.8442H14.0095M14.0427 11.8442H14.0095M14.0095 11.8442H13.9762M14.0095 11.8442H13.9762M13.9762 11.8442H13.943M13.9762 11.8442H13.943M13.943 11.8442H13.9098M13.943 11.8442H13.9098M13.9098 11.8442H13.8766M13.9098 11.8442H13.8766M13.8766 11.8442H13.8434M13.8766 11.8442H13.8434M13.8434 11.8442H13.8101M13.8434 11.8442H13.8101M13.8101 11.8442H13.7769M13.8101 11.8442H13.7769M13.7769 11.8442H13.7437M13.7769 11.8442H13.7437M13.7437 11.8442H13.7105M13.7437 11.8442H13.7105M13.7105 11.8442H13.6772M13.7105 11.8442H13.6772M13.6772 11.8442H13.644M13.6772 11.8442H13.644M13.644 11.8442H13.6108M13.644 11.8442H13.6108M13.6108 11.8442H13.5776M13.6108 11.8442H13.5776M13.5776 11.8442H13.5443M13.5776 11.8442H13.5443M13.5443 11.8442H13.5111M13.5443 11.8442H13.5111M13.5111 11.8442H13.4779M13.5111 11.8442H13.4779M13.4779 11.8442H13.4447M13.4779 11.8442H13.4447M13.4447 11.8442H13.4114M13.4447 11.8442H13.4114M13.4114 11.8442H13.3782M13.4114 11.8442H13.3782M13.3782 11.8442H13.345M13.3782 11.8442H13.345M13.345 11.8442H13.3118M13.345 11.8442H13.3118M13.3118 11.8442H13.2785M13.3118 11.8442H13.2785M13.2785 11.8442H13.2453M13.2785 11.8442H13.2453M13.2453 11.8442H13.2121M13.2453 11.8442H13.2121M13.2121 11.8442H13.1789M13.2121 11.8442H13.1789M13.1789 11.8442H13.1456M13.1789 11.8442H13.1456M13.1456 11.8442H13.1124M13.1456 11.8442H13.1124M13.1124 11.8442H13.0792M13.1124 11.8442H13.0792M13.0792 11.8442H13.046M13.0792 11.8442H13.046M13.046 11.8442H13.0127M13.046 11.8442H13.0127M13.0127 11.8442H12.9795M13.0127 11.8442H12.9795M12.9795 11.8442H12.9463M12.9795 11.8442H12.9463M12.9463 11.8442H12.9131M12.9463 11.8442H12.9131M12.9131 11.8442H12.8798M12.9131 11.8442H12.8798M12.8798 11.8442H12.8466M12.8798 11.8442H12.8466M12.8466 11.8442H12.8134M12.8466 11.8442H12.8134M12.8134 11.8442H12.7802M12.8134 11.8442H12.7802M12.7802 11.8442H12.7469M12.7802 11.8442H12.7469M12.7469 11.8442H12.7137M12.7469 11.8442H12.7137M12.7137 11.8442H12.6805M12.7137 11.8442H12.6805M12.6805 11.8442H12.6473M12.6805 11.8442H12.6473M12.6473 11.8442H12.614M12.6473 11.8442H12.614M12.614 11.8442H12.5808M12.614 11.8442H12.5808M12.5808 11.8442H12.5476M12.5808 11.8442H12.5476M12.5476 11.8442H12.5144M12.5476 11.8442H12.5144M12.5144 11.8442H12.4811M12.5144 11.8442H12.4811M12.4811 11.8442H12.4479M12.4811 11.8442H12.4479M12.4479 11.8442H12.4147M12.4479 11.8442H12.4147M12.4147 11.8442H12.3814M12.4147 11.8442H12.3814M12.3814 11.8442H12.3482M12.3814 11.8442H12.3482M12.3482 11.8442H12.315M12.3482 11.8442H12.315M12.315 11.8442H12.2818M12.315 11.8442H12.2818M12.2818 11.8442H12.2485M12.2818 11.8442H12.2485M12.2485 11.8442H12.2153M12.2485 11.8442H12.2153M12.2153 11.8442H12.1821M12.2153 11.8442H12.1821M12.1821 11.8442H12.1489M12.1821 11.8442H12.1489M12.1489 11.8442H12.1156M12.1489 11.8442H12.1156M12.1156 11.8442H12.0824M12.1156 11.8442H12.0824M12.0824 11.8442H12.0492M12.0824 11.8442H12.0492M12.0492 11.8442H12.016M12.0492 11.8442H12.016M12.016 11.8442H11.9827M12.016 11.8442H11.9827M11.9827 11.8442H11.9495M11.9827 11.8442H11.9495M11.9495 11.8442H11.9163M11.9495 11.8442H11.9163M11.9163 11.8442H11.883M11.9163 11.8442H11.883M11.883 11.8442H11.8498M11.883 11.8442H11.8498M11.8498 11.8442H11.8166M11.8498 11.8442H11.8166M11.8166 11.8442H11.7834M11.8166 11.8442H11.7834M11.7834 11.8442H11.7501M11.7834 11.8442H11.7501M11.7501 11.8442H11.7169M11.7501 11.8442H11.7169M11.7169 11.8442H11.6837M11.7169 11.8442H11.6837M11.6837 11.8442H11.6505M11.6837 11.8442H11.6505M11.6505 11.8442H11.6172M11.6505 11.8442H11.6172M11.6172 11.8442H11.584M11.6172 11.8442H11.584M11.584 11.8442H11.5508M11.584 11.8442H11.5508M11.5508 11.8442H11.5176M11.5508 11.8442H11.5176M11.5176 11.8442H11.4843M11.5176 11.8442H11.4843M11.4843 11.8442H11.4511M11.4843 11.8442H11.4511M11.4511 11.8442H11.4179M11.4511 11.8442H11.4179M11.4179 11.8442H11.3846M11.4179 11.8442H11.3846M11.3846 11.8442H11.3514M11.3846 11.8442H11.3514M11.3514 11.8442H11.3182M11.3514 11.8442H11.3182M11.3182 11.8442H11.285M11.3182 11.8442H11.285M11.285 11.8442H11.2517M11.285 11.8442H11.2517M11.2517 11.8442H11.2185M11.2517 11.8442H11.2185M11.2185 11.8442H11.1853M11.2185 11.8442H11.1853M11.1853 11.8442H11.1521M11.1853 11.8442H11.1521M11.1521 11.8442H11.1188M11.1521 11.8442H11.1188M11.1188 11.8442H11.0856M11.1188 11.8442H11.0856M11.0856 11.8442H11.0524M11.0856 11.8442H11.0524M11.0524 11.8442H11.0192M11.0524 11.8442H11.0192M11.0192 11.8442H10.9859M11.0192 11.8442H10.9859M10.9859 11.8442H10.9527M10.9859 11.8442H10.9527M10.9527 11.8442H10.9195M10.9527 11.8442H10.9195M10.9195 11.8442H10.8863M10.9195 11.8442H10.8863M10.8863 11.8442H10.853M10.8863 11.8442H10.853M10.853 11.8442H10.8198M10.853 11.8442H10.8198M10.8198 11.8442H10.7866M10.8198 11.8442H10.7866M10.7866 11.8442H10.7534M10.7866 11.8442H10.7534M10.7534 11.8442H10.7201M10.7534 11.8442H10.7201M10.7201 11.8442H10.6869M10.7201 11.8442H10.6869M10.6869 11.8442H10.6537M10.6869 11.8442H10.6537M10.6537 11.8442H10.6205M10.6537 11.8442H10.6205M10.6205 11.8442H10.5873M10.6205 11.8442H10.5873M10.5873 11.8442H10.554M10.5873 11.8442H10.554M10.554 11.8442H10.5208M10.554 11.8442H10.5208M10.5208 11.8442H10.4876M10.5208 11.8442H10.4876M10.4876 11.8442H10.4544M10.4876 11.8442H10.4544M10.4544 11.8442H10.4211M10.4544 11.8442H10.4211M10.4211 11.8442H10.3879M10.4211 11.8442H10.3879M10.3879 11.8442H10.3547M10.3879 11.8442H10.3547M10.3547 11.8442H10.3215M10.3547 11.8442H10.3215M10.3215 11.8442H10.2882M10.3215 11.8442H10.2882M10.2882 11.8442H10.255M10.2882 11.8442H10.255M10.255 11.8442H10.2218M10.255 11.8442H10.2218M10.2218 11.8442H10.1886M10.2218 11.8442H10.1886M10.1886 11.8442H10.1554M10.1886 11.8442H10.1554M10.1554 11.8442H10.1221M10.1554 11.8442H10.1221M10.1221 11.8442H10.0889M10.1221 11.8442H10.0889M10.0889 11.8442H10.0557M10.0889 11.8442H10.0557M10.0557 11.8442H10.0225M10.0557 11.8442H10.0225M10.0225 11.8442H9.98925M10.0225 11.8442H9.98925M9.98925 11.8442H9.95603M9.98925 11.8442H9.95603M9.95603 11.8442H9.92281M9.95603 11.8442H9.92281M9.92281 11.8442H9.88959M9.92281 11.8442H9.88959M9.88959 11.8442H9.85637M9.88959 11.8442H9.85637M9.85637 11.8442H9.82315M9.85637 11.8442H9.82315M9.82315 11.8442H9.78993M9.82315 11.8442H9.78993M9.78993 11.8442H9.75671M9.78993 11.8442H9.75671M9.75671 11.8442H9.7235M9.75671 11.8442H9.7235M9.7235 11.8442H9.69028M9.7235 11.8442H9.69028M9.69028 11.8442H9.65706M9.69028 11.8442H9.65706M9.65706 11.8442H9.62384M9.65706 11.8442H9.62384M9.62384 11.8442H9.59062M9.62384 11.8442H9.59062M9.59062 11.8442H9.5574M9.59062 11.8442H9.5574M9.5574 11.8442H9.52419M9.5574 11.8442H9.52419M9.52419 11.8442H9.49097M9.52419 11.8442H9.49097M9.49097 11.8442H9.45775M9.49097 11.8442H9.45775M9.45775 11.8442H9.42453M9.45775 11.8442H9.42453M9.42453 11.8442H9.39132M9.42453 11.8442H9.39132M9.39132 11.8442H9.3581M9.39132 11.8442H9.3581M9.3581 11.8442H9.32488M9.3581 11.8442H9.32488M9.32488 11.8442H9.29167M9.32488 11.8442H9.29167M9.29167 11.8442H9.25845M9.29167 11.8442H9.25845M9.25845 11.8442H9.22523M9.25845 11.8442H9.22523M9.22523 11.8442H9.19202M9.22523 11.8442H9.19202M9.19202 11.8442H9.1588M9.19202 11.8442H9.1588M9.1588 11.8442H9.12559M9.1588 11.8442H9.12559M9.12559 11.8442H9.09237M9.12559 11.8442H9.09237M9.09237 11.8442H9.05916M9.09237 11.8442H9.05916M9.05916 11.8442H9.02595M9.05916 11.8442H9.02595M9.02595 11.8442H8.99273M9.02595 11.8442H8.99273M8.99273 11.8442H8.95952M8.99273 11.8442H8.95952M8.95952 11.8442H8.9263M8.95952 11.8442H8.9263M8.9263 11.8442H8.89309M8.9263 11.8442H8.89309M8.89309 11.8442H8.85988M8.89309 11.8442H8.85988M8.85988 11.8442H8.82667M8.85988 11.8442H8.82667M8.82667 11.8442H8.79346M8.82667 11.8442H8.79346M8.79346 11.8442H8.76024M8.79346 11.8442H8.76024M8.76024 11.8442H8.72703M8.76024 11.8442H8.72703M8.72703 11.8442H8.69382M8.72703 11.8442H8.69382M8.69382 11.8442H8.66061M8.69382 11.8442H8.66061M8.66061 11.8442H8.6274M8.66061 11.8442H8.6274M8.6274 11.8442H8.59419M8.6274 11.8442H8.59419M8.59419 11.8442H8.56098M8.59419 11.8442H8.56098M8.56098 11.8442H8.52777M8.56098 11.8442H8.52777M8.52777 11.8442H8.49456M8.52777 11.8442H8.49456M8.49456 11.8442H8.46135M8.49456 11.8442H8.46135M8.46135 11.8442H8.42814M8.46135 11.8442H8.42814M8.42814 11.8442H8.39493M8.42814 11.8442H8.39493M8.39493 11.8442H8.36172M8.39493 11.8442H8.36172M8.36172 11.8442H8.32852M8.36172 11.8442H8.32852M8.32852 11.8442H8.29531M8.32852 11.8442H8.29531M8.29531 11.8442H8.2621M8.29531 11.8442H8.2621M8.2621 11.8442H8.22889M8.2621 11.8442H8.22889M8.22889 11.8442H8.19569M8.22889 11.8442H8.19569M8.19569 11.8442H8.16248M8.19569 11.8442H8.16248M8.16248 11.8442H8.12928M8.16248 11.8442H8.12928M8.12928 11.8442H8.09607M8.12928 11.8442H8.09607M8.09607 11.8442H8.06287M8.09607 11.8442H8.06287M8.06287 11.8442H8.02966M8.06287 11.8442H8.02966M8.02966 11.8442H7.99646M8.02966 11.8442H7.99646M7.99646 11.8442H7.96325M7.99646 11.8442H7.96325M7.96325 11.8442H7.93005M7.96325 11.8442H7.93005M7.93005 11.8442H7.89685M7.93005 11.8442H7.89685M7.89685 11.8442H7.86364M7.89685 11.8442H7.86364M7.86364 11.8442H7.83044M7.86364 11.8442H7.83044M7.83044 11.8442H7.79724M7.83044 11.8442H7.79724M7.79724 11.8442H7.76404M7.79724 11.8442H7.76404M7.76404 11.8442H7.73083M7.76404 11.8442H7.73083M7.73083 11.8442H7.69763M7.73083 11.8442H7.69763M7.69763 11.8442H7.66443M7.69763 11.8442H7.66443M7.66443 11.8442H7.63123M7.66443 11.8442H7.63123M7.63123 11.8442H7.59803M7.63123 11.8442H7.59803M7.59803 11.8442H7.56483M7.59803 11.8442H7.56483M7.56483 11.8442H7.53163M7.56483 11.8442H7.53163M7.53163 11.8442H7.49844M7.53163 11.8442H7.49844M7.49844 11.8442H7.46524M7.49844 11.8442H7.46524M7.46524 11.8442H7.43204M7.46524 11.8442H7.43204M7.43204 11.8442H7.39884M7.43204 11.8442H7.39884M7.39884 11.8442H7.36564M7.39884 11.8442H7.36564M7.36564 11.8442H7.33245M7.36564 11.8442H7.33245M7.33245 11.8442H7.29925M7.33245 11.8442H7.29925M7.29925 11.8442H7.26606M7.29925 11.8442H7.26606M7.26606 11.8442H7.23286M7.26606 11.8442H7.23286M7.23286 11.8442H7.19967H7.23286ZM20.2208 0.0161614V-0.165613L20.0399 -0.182929C19.9564 -0.190917 19.8588 -0.2 19.7635 -0.2H19.7254H19.6874H19.6493H19.6113H19.5732H19.5352H19.4971H19.4591H19.421H19.383H19.3449H19.3069H19.2688H19.2308H19.1927H19.1547H19.1166H19.0786H19.0405H19.0025H18.9644H18.9264H18.8883H18.8503H18.8122H18.7742H18.7361H18.6981H18.66H18.622H18.5839H18.5459H18.5078H18.4697H18.4317H18.3936H18.3556H18.3175H18.2795H18.2414H18.2034H18.1653H18.1273H18.0892H18.0512H18.0131H17.9751H17.937H17.899H17.8609H17.8229H17.7848H17.7468H17.7087H17.6707H17.6326H17.5946H17.5565H17.5185H17.4804H17.4424H17.4043H17.3663H17.3282H17.2902H17.2521H17.2141H17.176H17.138H17.0999H17.0619H17.0238H16.9858H16.9477H16.9097H16.8716H16.8336H16.7955H16.7575H16.7194H16.6814H16.6433H16.6053H16.5672H16.5292H16.4911H16.4531H16.415H16.377H16.3389H16.3009H16.2628H16.2248H16.1867H16.1487H16.1106H16.0725H16.0345H15.9964H15.9584H15.9203H15.8823H15.8442H15.8062H15.7681H15.7301H15.692H15.654H15.6159H15.5779H15.5398H15.5018H15.4637H15.4257H15.3876H15.3496H15.3115H15.2735H15.2354H15.1974H15.1593H15.1213H15.0832H15.0452H15.0071H14.9691H14.931H14.893H14.8549H14.8169H14.7788H14.7408H14.7027H14.6647H14.6266H14.5886H14.5505H14.5125H14.4744H14.4364H14.3983H14.3603H14.3222H14.2842H14.2461H14.2081H14.17H14.132H14.0939H14.0559H14.0178H13.9798H13.9417H13.9037H13.8656H13.8276H13.7895H13.7515H13.7134H13.6754H13.6373H13.5992H13.5612H13.5231H13.4851H13.447H13.409H13.3709H13.3329H13.2948H13.2568H13.2187H13.1807H13.1426H13.1046H13.0665H13.0285H12.9904H12.9524H12.9143H12.8763H12.8382H12.8002H12.7621H12.7241H12.686H12.648H12.6099H12.5719H12.5338H12.4958H12.4577H12.4197H12.3816H12.3436H12.3055H12.2675H12.2294H12.1914H12.1533H12.1153H12.0772H12.0392H12.0011H11.9631H11.925H11.887H11.8489H11.8109H11.7728H11.7348H11.6967H11.6587H11.6206H11.5826H11.5445H11.5065H11.4684H11.4304H11.3923H11.3543H11.3162H11.2782H11.2401H11.202H11.164H11.1259H11.0879H11.0498H11.0118H10.9737H10.9357H10.8976H10.8596H10.8215H10.7835H10.7454H10.7074H10.6693H10.6313H10.5932H10.5552H10.5171H10.4791H10.441H10.403H10.3649H10.3269H10.2888H10.2508H10.2127H10.1747H10.1366H10.0986H10.0605H10.0225H9.98442H9.94637H9.90832H9.87027H9.83222H9.79417H9.75612H9.71807H9.68002H9.64197H9.60392H9.56587H9.52781H9.48976H9.45171H9.41366H9.37561H9.33756H9.29951H9.26146H9.22341H9.18536H9.14731H9.10926H9.07121H9.03315H8.9951H8.95705H8.919H8.88095H8.8429H8.80485H8.7668H8.72875H8.6907H8.65265H8.6146H8.57654H8.53849H8.50044H8.46239H8.42434H8.38629H8.34824H8.31019H8.27214H8.23409H8.19604H8.15799H8.11994H8.08188H8.04383H8.00578H7.96773H7.92968H7.89163H7.85358H7.81553H7.77748H7.73943H7.70138H7.66333H7.62528H7.58722H7.54917H7.51112H7.47307H7.43502H7.39697H7.35892H7.32087H7.28282H7.24477H7.20672H7.16867H7.13061H7.09256H7.05451H7.01646H6.97841H6.94036H6.90231H6.86426H6.82621H6.78816H6.75011H6.71206H6.67401H6.63595H6.5979H6.55985H6.5218H6.48375H6.4457H6.40765H6.3696H6.33155H6.2935H6.25545H6.2174H6.17935H6.14129H6.10324H6.06519H6.02714H5.98909H5.95104H5.91299H5.87494H5.83689H5.79884H5.76079H5.72274H5.68469H5.64663H5.60858H5.57053H5.53248H5.49443H5.45638H5.41833H5.38028H5.34223H5.30418H5.26613H5.22808H5.19002H5.15197H5.11392H5.07587H5.03782H4.99977H4.96172H4.92367H4.88562H4.84757H4.80952H4.77147H4.73342H4.69536H4.65731H4.61926H4.58121H4.54316H4.50511H4.46706H4.42901H4.39096H4.35291H4.31486H4.27681H4.23876H4.2007H4.16265H4.1246H4.08655H4.0485H4.01045H3.9724H3.93435H3.8963H3.85825H3.8202H3.78215H3.7441H3.70604H3.66799H3.62994H3.59189H3.55384H3.51579H3.47774H3.43969H3.40164H3.36359H3.32554H3.28749H3.24943H3.21138H3.17333H3.13528H3.09723H3.05918H3.02113H2.98308H2.94503H2.90698H2.86893H2.83088H2.79283H2.75477H2.71672H2.67867H2.64062H2.60257H2.56452H2.52647H2.48842H2.45037H2.41232H2.37427H2.33622H2.29817H2.26011H2.22206H2.18401H2.14596H2.10791H2.06986H2.03181H1.99376H1.95571H1.91766H1.87961H1.84156H1.80351H1.76545H1.7274H1.68935H1.6513H1.61325H1.5752H1.53715H1.4991H1.46105H1.423H1.38495H1.3469H1.30884H1.27079H1.23274H1.19469H1.15664H1.11859H1.08054H1.04249H1.00444H0.966388H0.928337H0.890286H0.852235H0.814185H0.776134H0.738083H0.700032H0.661982H0.623931H0.58588H0.547829H0.509778H0.471728H0.433677H0.395626H0.357575H0.319524H0.281474C0.225342 -0.2 0.171907 -0.196477 0.124146 -0.192865C0.113035 -0.192025 0.102368 -0.191193 0.0920342 -0.190386C0.0559613 -0.187573 0.0239488 -0.185076 -0.00872903 -0.183648L-0.2 -0.175292V0.0161614V0.0413061V0.0665514V0.0918966V0.117341V0.142885V0.168526V0.194265V0.220101V0.246034V0.272063V0.298186V0.324405V0.350717V0.377123V0.403622V0.430214V0.456897V0.483671V0.510535V0.53749V0.564534V0.591667V0.618888V0.646197V0.673593V0.701075V0.728643V0.756297V0.784035V0.811857V0.839763V0.867752V0.895823V0.923976V0.95221V0.980525V1.00892V1.03739V1.06595V1.09458V1.12329V1.15207V1.18094V1.20987V1.23889V1.26798V1.29714V1.32637V1.35568V1.38507V1.41452V1.44404V1.47364V1.5033V1.53304V1.56284V1.59271V1.62265V1.65266V1.68273V1.71287V1.74308V1.77335V1.80368V1.83408V1.86454V1.89506V1.92564V1.95629V1.98699V2.01776V2.04859V2.07947V2.11041V2.14142V2.17247V2.20359V2.23476V2.26598V2.29726V2.3286V2.35999V2.39143V2.42292V2.45447V2.48606V2.51771V2.54941V2.58116V2.61295V2.6448V2.67669V2.70863V2.74062V2.77265V2.80473V2.83685V2.86901V2.90122V2.93348V2.96577V2.99811V3.03049V3.06291V3.09537V3.12787V3.16041V3.19298V3.2256V3.25825V3.29094V3.32366V3.35642V3.38922V3.42205V3.45491V3.4878V3.52073V3.55369V3.58668V3.61971V3.65276V3.68584V3.71895V3.75209V3.78526V3.81845V3.85167V3.88492V3.91819V3.95149V3.98481V4.01816V4.05153V4.08492V4.11833V4.15176V4.18522V4.21869V4.25219V4.2857V4.31924V4.35279V4.38635V4.41994V4.45354V4.48715V4.52078V4.55443V4.58809V4.62176V4.65545V4.68914V4.72285V4.75657V4.7903V4.82404V4.85778V4.89154V4.9253V4.95907V4.99285V5.02664V5.06043V5.09422V5.12802V5.16182V5.19563V5.22944V5.26325V5.29706V5.33087V5.36468V5.3985V5.43231V5.46612V5.49993V5.53373V5.56753V5.60133V5.63513V5.66892V5.7027V5.73648V5.77025V5.80401V5.83776V5.87151V5.90525V5.93898V5.97269V6.0064V6.04009V6.07378V6.10745V6.1411V6.17475V6.20837V6.24199V6.27559V6.30917V6.34273V6.37628V6.40981V6.44332V6.47682V6.51029V6.54374V6.57717V6.61058V6.64397V6.67734V6.71068V6.744V6.77729V6.81056V6.8438V6.87702V6.91021V6.94337V6.97651V7.00962V7.04269V7.07574V7.10876V7.14175V7.1747V7.20763V7.24052V7.27337V7.3062V7.33899V7.37174V7.40446V7.43715V7.46979V7.5024V7.53497V7.56751V7.6V7.63245V7.66487V7.69724V7.72957V7.76186V7.79411V7.82631V7.85847V7.89059V7.92266V7.95469V7.98667V8.0186V8.05049V8.08232V8.11411V8.14585V8.17754V8.20919V8.24078V8.27231V8.3038V8.33523V8.36662V8.39794V8.42922V8.46043V8.4916V8.5227V8.55375V8.58475V8.61568V8.64656V8.67737V8.70813V8.73883V8.76947V8.80004V8.83056V8.86101V8.8914V8.92172V8.95198V8.98218V9.01231V9.04237V9.07237V9.1023V9.13216V9.16195V9.19168V9.22133V9.25092V9.28043V9.30988V9.33925V9.36855V9.39777V9.42693V9.456V9.48501V9.51394V9.54279V9.57156V9.60026V9.62888V9.65742V9.68589V9.71427V9.74257V9.7708V9.79894V9.827V9.85497V9.88287V9.91068V9.93841V9.96605V9.9936V10.0211V10.0485V10.0758V10.103V10.1301V10.1571V10.1841V10.2109V10.2377V10.2643V10.2909V10.3174V10.3438V10.3701V10.3963V10.4224V10.4484V10.4743V10.5002V10.5259V10.5515V10.5771V10.6025V10.6278V10.653V10.6782V10.7032V10.7281V10.753V10.7777V10.8023V10.8268V10.8512V10.8755V10.8997V10.9238V10.9478V10.9717V10.9955V11.0191V11.0427V11.0661V11.0894V11.1127V11.1358V11.1588V11.1816V11.2044V11.2271V11.2496V11.272V11.2943V11.3165V11.3386V11.3606V11.3824V11.4041V11.4257V11.4472V11.4686V11.4898V11.5109V11.5319V11.5528V11.5735V11.5942V11.6147V11.635V11.6553V11.6754V11.6954V11.7153V11.735V11.7546V11.7741V11.7935V11.8127V11.8318V11.8507V11.8696V11.8882V11.9068V11.9252V11.9435V11.9617V11.9797V11.9976V12.0153V12.0329V12.0504V12.0677V12.0849V12.102V12.1189V12.1357V12.1523V12.1688V12.1851V12.2013V12.2174V12.2333V12.2491V12.2647V12.2802V12.2955V12.3107V12.3257V12.3406V12.3553V12.3699V12.3843V12.3986V12.4128V12.4267V12.4406V12.4542V12.4678V12.4811V12.4943V12.5074V12.5203V12.533V12.5456V12.558V12.5703V12.5824V12.5943V12.6061V12.6178V12.6292V12.6405V12.6517V12.6626V12.6735V12.6841V12.6946V12.7049V12.715V12.725V12.7348V12.7445V12.754V12.7633V12.7724V12.7814V12.7902V12.7988V12.8073V12.8155V12.8237V12.8316V12.8393V12.8469V12.8543V12.8616V12.8686V12.8755V12.8822V12.8887V12.8951V12.9012V12.9072V12.913V12.9186V12.9241V12.9293V12.9344V12.9393V12.944V12.9485V12.9528V12.957V12.961V12.9647V12.9683V12.9717V12.9749V12.9779V12.9808V12.9834V12.9858V12.9881V12.9901V12.992V12.9937V12.9952V12.9964V12.9975V12.9984V12.9991V12.9996V12.9999L0 13H-0.2V13.2H0H20.0208H20.2208V13H20.0208L20.2208 12.9999V12.9996V12.9991V12.9984V12.9975V12.9964V12.9952V12.9937V12.992V12.9901V12.9881V12.9858V12.9834V12.9807V12.9779V12.9749V12.9717V12.9683V12.9647V12.9609V12.957V12.9528V12.9485V12.944V12.9393V12.9344V12.9293V12.924V12.9186V12.913V12.9072V12.9012V12.895V12.8887V12.8822V12.8755V12.8686V12.8615V12.8543V12.8469V12.8393V12.8315V12.8236V12.8155V12.8072V12.7987V12.7901V12.7813V12.7723V12.7632V12.7539V12.7444V12.7347V12.7249V12.7149V12.7048V12.6944V12.684V12.6733V12.6625V12.6515V12.6404V12.6291V12.6176V12.606V12.5942V12.5822V12.5701V12.5578V12.5454V12.5328V12.5201V12.5072V12.4941V12.4809V12.4675V12.454V12.4403V12.4265V12.4125V12.3984V12.3841V12.3696V12.3551V12.3403V12.3254V12.3104V12.2952V12.2799V12.2644V12.2488V12.233V12.2171V12.201V12.1848V12.1684V12.1519V12.1353V12.1185V12.1016V12.0846V12.0674V12.05V12.0325V12.0149V11.9972V11.9793V11.9613V11.9431V11.9248V11.9064V11.8878V11.8691V11.8503V11.8313V11.8122V11.793V11.7736V11.7541V11.7345V11.7148V11.6949V11.6749V11.6547V11.6345V11.6141V11.5936V11.573V11.5522V11.5313V11.5103V11.4892V11.468V11.4466V11.4251V11.4035V11.3818V11.3599V11.338V11.3159V11.2937V11.2714V11.2489V11.2264V11.2037V11.1809V11.158V11.135V11.1119V11.0887V11.0654V11.0419V11.0184V10.9947V10.9709V10.947V10.923V10.8989V10.8747V10.8504V10.826V10.8015V10.7768V10.7521V10.7273V10.7023V10.6773V10.6522V10.6269V10.6016V10.5762V10.5506V10.525V10.4992V10.4734V10.4475V10.4215V10.3953V10.3691V10.3428V10.3164V10.2899V10.2633V10.2367V10.2099V10.183V10.1561V10.1291V10.1019V10.0747V10.0474V10.02V9.99253V9.96497V9.93732V9.90958V9.88176V9.85386V9.82588V9.79781V9.76966V9.74143V9.71312V9.68473V9.65626V9.62771V9.59908V9.57037V9.54159V9.51273V9.4838V9.45479V9.4257V9.39654V9.36731V9.338V9.30862V9.27917V9.24965V9.22006V9.1904V9.16066V9.13086V9.10099V9.07105V9.04105V9.01098V8.98084V8.95064V8.92037V8.89004V8.85965V8.82919V8.79867V8.76809V8.73744V8.70674V8.67597V8.64515V8.61427V8.58332V8.55232V8.52127V8.49016V8.45899V8.42776V8.39648V8.36515V8.33376V8.30232V8.27083V8.23928V8.20769V8.17604V8.14434V8.1126V8.0808V8.04896V8.01707V7.98513V7.95314V7.92111V7.88904V7.85691V7.82475V7.79254V7.76029V7.72799V7.69565V7.66327V7.63086V7.5984V7.5659V7.53336V7.50078V7.46817V7.43552V7.40283V7.37011V7.33735V7.30455V7.27172V7.23886V7.20597V7.17304V7.14008V7.10709V7.07406V7.04101V7.00793V6.97482V6.94168V6.90851V6.87532V6.8421V6.80885V6.77558V6.74228V6.70896V6.67561V6.64224V6.60885V6.57544V6.542V6.50855V6.47507V6.44158V6.40806V6.37453V6.34098V6.30741V6.27383V6.24023V6.20661V6.17298V6.13934V6.10568V6.072V6.03832V6.00462V5.97091V5.9372V5.90347V5.86973V5.83598V5.80222V5.76846V5.73469V5.70091V5.66713V5.63334V5.59954V5.56574V5.53194V5.49813V5.46432V5.43051V5.3967V5.36289V5.32908V5.29526V5.26145V5.22764V5.19383V5.16003V5.12622V5.09243V5.05863V5.02484V4.99106V4.95728V4.92351V4.88975V4.856V4.82225V4.78851V4.75478V4.72107V4.68736V4.65367V4.61998V4.58631V4.55266V4.51901V4.48539V4.45177V4.41817V4.38459V4.35103V4.31748V4.28395V4.25044V4.21695V4.18348V4.15002V4.11659V4.08318V4.0498V4.01643V3.98309V3.94977V3.91648V3.88321V3.84997V3.81675V3.78356V3.7504V3.71727V3.68416V3.65108V3.61804V3.58502V3.55203V3.51908V3.48616V3.45327V3.42041V3.38759V3.3548V3.32204V3.28933V3.25664V3.224V3.19139V3.15882V3.12629V3.0938V3.06135V3.02893V2.99656V2.96423V2.93195V2.8997V2.8675V2.83534V2.80323V2.77116V2.73913V2.70716V2.67523V2.64334V2.61151V2.57972V2.54798V2.51629V2.48466V2.45307V2.42153V2.39005V2.35862V2.32724V2.29592V2.26465V2.23343V2.20227V2.17117V2.14012V2.10913V2.0782V2.04733V2.01651V1.98576V1.95507V1.92443V1.89386V1.86335V1.8329V1.80252V1.7722V1.74194V1.71175V1.68163V1.65157V1.62157V1.59165V1.56179V1.532V1.50228V1.47263V1.44305V1.41354V1.3841V1.35474V1.32544V1.29622V1.26707V1.238V1.209V1.18008V1.15124V1.12247V1.09377V1.06516V1.03662V1.00817V0.979788V0.951491V0.923275V0.895139V0.867086V0.839116V0.811228V0.783424V0.755705V0.72807V0.700521V0.673057V0.645681V0.618392V0.59119V0.564077V0.537053V0.510118V0.483274V0.45652V0.429858V0.403288V0.37681V0.350425V0.324134V0.297937V0.271835V0.245828V0.219918V0.194104V0.168387V0.142768V0.117248V0.0918264V0.0665044V0.0412825V0.0161614ZM2.09366 0.991906C7.38809 0.991909 12.6452 0.992012 17.9395 0.995618C17.165 1.77384 16.3904 2.55172 15.6159 3.32949C13.9519 5.00063 12.2883 6.67126 10.6266 8.34362C10.4164 8.5548 10.2084 8.64227 10.0185 8.64227C9.82852 8.64227 9.62046 8.5548 9.41029 8.34362L2.09366 0.991906Z" transform="translate(0.999023 1)" fill="#4493C9" stroke="#4493C9" stroke-width="0.4"/>
</svg>
