<svg width="19" height="27" viewBox="0 0 19 27" fill="none" xmlns="http://www.w3.org/2000/svg">
<path d="M3.5025 0C1.60533 0 0 1.60541 0 3.5027C0 5.4 1.60533 7.00541 3.5025 7.00541C5.39968 7.00541 7.00501 5.4 7.00501 3.5027C7.00501 1.45946 5.39968 0 3.5025 0ZM3.5025 5.83784C2.18908 5.83784 1.02157 4.67027 1.02157 3.35676C1.02157 2.04325 2.18908 0.875673 3.5025 0.875673C4.81593 0.875673 5.98344 2.04325 5.98344 3.35676C5.98344 4.81622 4.81593 5.83784 3.5025 5.83784Z" transform="translate(6.11365 5.98364)" fill="white" fill-opacity="0.5"/>
<path d="M16.1833 2.77298C14.432 1.02162 11.9512 0 9.47025 0C6.98934 0 4.50837 1.02162 2.75713 2.77298C-0.599401 6.12973 -0.891238 12.2595 1.88155 16.0541L9.47025 27L17.0589 16.0541C19.9776 12.2595 19.5398 6.12973 16.1833 2.77298ZM16.3292 15.4703L9.61615 25.2486L2.90312 15.4703C0.276269 12.1135 0.714078 6.42162 3.6328 3.5027C5.2381 1.8973 7.42711 1.02162 9.61615 1.02162C11.8052 1.02162 13.9942 1.8973 15.5995 3.5027C18.5182 6.42162 18.8101 12.1135 16.3292 15.4703Z" fill="white" fill-opacity="0.5"/>
</svg>
