<svg width="20" height="13" viewBox="0 0 20 13" fill="none" xmlns="http://www.w3.org/2000/svg">
<path d="M20 0.0161614C20 4.29488 20 13 20 13H0C0 13 0 4.29892 0 0.0161614C0.092388 0.012121 0.184776 0 0.281181 0C6.76843 0 13.2557 0 19.7429 0C19.8273 0 19.9156 0.00808069 20 0.0161614ZM1.62282 0.791906C1.69512 0.872712 1.74332 0.925237 1.79152 0.97372C4.28198 3.47873 6.76843 5.97969 9.25889 8.4847C9.73288 8.96146 10.2832 8.96146 10.7572 8.4847C13.2476 5.97565 15.7421 3.47065 18.2366 0.9616C18.2808 0.917156 18.3209 0.868672 18.3892 0.795946C12.7857 0.791905 7.22635 0.791906 1.62282 0.791906ZM13.3922 6.89685C13.3601 6.94129 13.328 7.00998 13.2758 7.05846C12.609 7.7332 11.9422 8.4039 11.2754 9.07459C10.5242 9.82609 9.48785 9.82609 8.74071 9.07459C8.07391 8.4039 7.40711 7.7332 6.73629 7.0625C6.68407 7.00998 6.63185 6.9615 6.60373 6.93725C4.90058 8.6544 3.20546 10.3594 1.53043 12.0442C7.17011 12.0442 12.85 12.0442 18.5057 12.0442C16.8146 10.3392 15.1195 8.63824 13.3922 6.89685ZM0.811408 1.18786C0.811408 4.6181 0.811408 8.06451 0.811408 11.4826C2.52259 9.76145 4.24182 8.03218 5.9289 6.33524C4.24182 4.6383 2.52259 2.90904 0.811408 1.18786ZM14.0751 6.29888C15.7943 8.02814 17.5095 9.75337 19.1886 11.4382C19.1886 8.05643 19.1886 4.60598 19.1886 1.15554C17.4613 2.88884 15.7461 4.6181 14.0751 6.29888Z" fill="white" fill-opacity="0.5"/>
</svg>
