<svg width="47" height="60" viewBox="0 0 47 60" fill="none" xmlns="http://www.w3.org/2000/svg">
<path d="M26 0H1C0.448 0 0 0.447 0 1C0 1.553 0.448 2 1 2H26C26.552 2 27 1.553 27 1C27 0.447 26.552 0 26 0Z" transform="translate(10 22)" fill="#4493C9"/>
<path d="M1 2H11C11.552 2 12 1.553 12 1C12 0.447 11.552 0 11 0H1C0.448 0 0 0.447 0 1C0 1.553 0.448 2 1 2Z" transform="translate(10 14)" fill="#4493C9"/>
<path d="M26 0H1C0.448 0 0 0.447 0 1C0 1.553 0.448 2 1 2H26C26.552 2 27 1.553 27 1C27 0.447 26.552 0 26 0Z" transform="translate(10 30)" fill="#4493C9"/>
<path d="M26 0H1C0.448 0 0 0.447 0 1C0 1.553 0.448 2 1 2H26C26.552 2 27 1.553 27 1C27 0.447 26.552 0 26 0Z" transform="translate(10 38)" fill="#4493C9"/>
<path d="M26 0H1C0.448 0 0 0.447 0 1C0 1.553 0.448 2 1 2H26C26.552 2 27 1.553 27 1C27 0.447 26.552 0 26 0Z" transform="translate(10 46)" fill="#4493C9"/>
<path d="M32.414 0H0V60H47V14.586L32.414 0ZM33 3.414L43.586 14H33V3.414ZM2 58V2H31V16H45V58H2Z" fill="#4493C9"/>
</svg>
