<svg width="17" height="24" viewBox="0 0 17 24" fill="none" xmlns="http://www.w3.org/2000/svg">
<path d="M3.13382 0C1.43635 0 0 1.42703 0 3.11352C0 4.8 1.43635 6.22703 3.13382 6.22703C4.83129 6.22703 6.26764 4.8 6.26764 3.11352C6.26764 1.2973 4.83129 0 3.13382 0ZM3.13382 5.18919C1.95865 5.18919 0.914037 4.15136 0.914037 2.98379C0.914037 1.81622 1.95865 0.778376 3.13382 0.778376C4.30899 0.778376 5.3536 1.81622 5.3536 2.98379C5.3536 4.28109 4.30899 5.18919 3.13382 5.18919Z" transform="translate(5.47009 5.31892)" fill="white" fill-opacity="0.5"/>
<path d="M14.4798 2.46487C12.9129 0.90811 10.6931 0 8.47338 0C6.25362 0 4.0338 0.90811 2.46691 2.46487C-0.536306 5.44865 -0.797423 10.8973 1.68349 14.2703L8.47338 24L15.2632 14.2703C17.8747 10.8973 17.483 5.44865 14.4798 2.46487ZM14.6103 13.7513L8.60392 22.4432L2.59753 13.7513C0.247189 10.7676 0.638912 5.70811 3.2504 3.11352C4.68672 1.68649 6.64531 0.908104 8.60392 0.908104C10.5625 0.908104 12.5211 1.68649 13.9574 3.11352C16.5689 5.70811 16.8301 10.7676 14.6103 13.7513Z" fill="white" fill-opacity="0.5"/>
</svg>
