<svg width="14" height="19" viewBox="0 0 14 19" fill="none" xmlns="http://www.w3.org/2000/svg">
<path d="M2.20758 -0.05C0.98425 -0.05 -0.05 0.983151 -0.05 2.20541C-0.05 3.42766 0.98425 4.46081 2.20758 4.46081C3.4309 4.46081 4.46515 3.42766 4.46515 2.20541C4.46515 0.889904 3.42953 -0.05 2.20758 -0.05ZM2.20758 3.62568C1.40731 3.62568 0.693881 2.91288 0.693881 2.11352C0.693881 1.31415 1.40731 0.60135 2.20758 0.60135C3.00784 0.60135 3.72127 1.31415 3.72127 2.11352C3.72127 3.00287 3.00979 3.62568 2.20758 3.62568Z" transform="translate(4.85352 4.76748)" fill="#4493C9" stroke="#E5E5E5" stroke-width="0.1"/>
<path d="M5.92788 17.0285L5.96896 17.0877L6.01004 17.0285L10.7923 10.1376C12.6466 7.72826 12.3683 3.84139 10.2354 1.71057C9.1222 0.598435 7.54579 -0.05 5.96896 -0.05C4.39212 -0.05 2.81566 0.598435 1.70244 1.71057C0.634477 2.7775 0.055799 4.28307 -0.036771 5.82064C-0.129326 7.35797 0.263761 8.93184 1.14518 10.1371C1.1453 10.1373 1.14543 10.1375 1.14556 10.1376L5.92788 17.0285ZM10.2518 9.7108L10.2518 9.71078L10.2508 9.71222L6.06092 15.809L1.871 9.71222L1.87108 9.71216L1.86915 9.70971C1.05043 8.66458 0.707556 7.25317 0.798903 5.8729C0.890256 4.49254 1.41548 3.14945 2.32504 2.24078C3.3273 1.23949 4.69422 0.69324 6.06092 0.69324C7.42761 0.69324 8.79453 1.23949 9.79679 2.24078C10.706 3.14909 11.2085 4.49182 11.2884 5.87249C11.3684 7.25309 11.0254 8.66523 10.2518 9.7108Z" transform="translate(1 1)" fill="#4493C9" stroke="#E5E5E5" stroke-width="0.1"/>
</svg>
