<svg width="216" height="50" viewBox="0 0 216 50" fill="none" xmlns="http://www.w3.org/2000/svg">
<path fill-rule="evenodd" clip-rule="evenodd" d="M20.2132 30.4641C22.4838 29.3722 25.3333 28.1055 27.6039 27.0136C30.3866 29.8308 33.7703 30.9227 39.0684 33.1501C32.3678 32.5168 26.4463 32.0801 20.2132 30.4641ZM21.393 6.55141C9.59458 6.55141 -1.6984e-07 15.8326 -1.6984e-07 27.2757C-1.6984e-07 38.7188 9.57232 48 21.393 48C33.2137 48 42.7861 38.7188 42.7861 27.2757C42.7861 21.3576 40.226 16.0073 36.1077 12.2293L35.4844 13.4086C39.1797 16.9463 41.4727 21.838 41.4727 27.2757C41.4727 38.02 32.4791 46.7334 21.393 46.7334C10.3069 46.7334 1.31341 38.02 1.31341 27.2757C1.31341 16.5314 10.3069 7.81802 21.393 7.81802C25.1107 7.81802 28.5834 8.80073 31.5664 10.5041L32.4123 9.52138C29.1845 7.64331 25.4223 6.55141 21.393 6.55141ZM4.51903 36.6005C19.1446 33.5651 25.3333 33.4777 39.7808 33.7616C27.693 32.5823 24.2425 32.3421 18.41 30.6388L27.7375 26.0746C32.0116 17.667 37.3098 8.40764 41.584 0L20.6362 24.8298C15.1376 28.7607 9.99529 32.6697 4.51903 36.6005Z" transform="translate(1 1)" fill="white" stroke="#0D3D5D" stroke-width="0.216" stroke-miterlimit="22.9256"/>
<path d="M5.64 8.25H1.92L1.15 10H0.12L3.29 3H4.28L7.46 10H6.41L5.64 8.25ZM5.29 7.45L3.78 4.02L2.27 7.45H5.29ZM13.0281 6.37C13.5015 6.48333 13.8581 6.68667 14.0981 6.98C14.3448 7.26667 14.4681 7.63667 14.4681 8.09C14.4681 8.69667 14.2448 9.16667 13.7981 9.5C13.3581 9.83333 12.7148 10 11.8681 10H8.66812V3H11.6781C12.4448 3 13.0415 3.15667 13.4681 3.47C13.9015 3.77667 14.1181 4.22 14.1181 4.8C14.1181 5.18 14.0215 5.50333 13.8281 5.77C13.6415 6.03667 13.3748 6.23667 13.0281 6.37ZM9.65813 6.08H11.6081C12.0948 6.08 12.4648 5.98333 12.7181 5.79C12.9781 5.59667 13.1081 5.31333 13.1081 4.94C13.1081 4.56667 12.9781 4.28333 12.7181 4.09C12.4581 3.89 12.0881 3.79 11.6081 3.79H9.65813V6.08ZM11.8481 9.21C12.9215 9.21 13.4581 8.81 13.4581 8.01C13.4581 7.61 13.3215 7.31667 13.0481 7.13C12.7815 6.93667 12.3815 6.84 11.8481 6.84H9.65813V9.21H11.8481ZM16.1388 3H17.1288V8.4L21.2688 3H22.1888V10H21.2088V4.61L17.0588 10H16.1388V3ZM28.9213 8.25H25.2013L24.4313 10H23.4013L26.5712 3H27.5613L30.7412 10H29.6912L28.9213 8.25ZM28.5712 7.45L27.0612 4.02L25.5512 7.45H28.5712ZM34.3894 6.92H32.9294V10H31.9494V3H32.9294V6.04H34.4094L36.6094 3H37.6794L35.1794 6.39L37.7994 10H36.6594L34.3894 6.92ZM41.9548 10.08C41.2482 10.08 40.6115 9.92667 40.0448 9.62C39.4782 9.30667 39.0315 8.87667 38.7048 8.33C38.3848 7.78333 38.2248 7.17333 38.2248 6.5C38.2248 5.82667 38.3848 5.21667 38.7048 4.67C39.0315 4.12333 39.4782 3.69667 40.0448 3.39C40.6115 3.07667 41.2482 2.92 41.9548 2.92C42.6548 2.92 43.2882 3.07667 43.8548 3.39C44.4215 3.69667 44.8648 4.12333 45.1848 4.67C45.5048 5.21 45.6648 5.82 45.6648 6.5C45.6648 7.18 45.5048 7.79333 45.1848 8.34C44.8648 8.88 44.4215 9.30667 43.8548 9.62C43.2882 9.92667 42.6548 10.08 41.9548 10.08ZM41.9548 9.19C42.4682 9.19 42.9282 9.07333 43.3348 8.84C43.7482 8.60667 44.0715 8.28667 44.3048 7.88C44.5448 7.46667 44.6648 7.00667 44.6648 6.5C44.6648 5.99333 44.5448 5.53667 44.3048 5.13C44.0715 4.71667 43.7482 4.39333 43.3348 4.16C42.9282 3.92667 42.4682 3.81 41.9548 3.81C41.4415 3.81 40.9748 3.92667 40.5548 4.16C40.1415 4.39333 39.8148 4.71667 39.5748 5.13C39.3415 5.53667 39.2248 5.99333 39.2248 6.5C39.2248 7.00667 39.3415 7.46667 39.5748 7.88C39.8148 8.28667 40.1415 8.60667 40.5548 8.84C40.9748 9.07333 41.4415 9.19 41.9548 9.19ZM53.7714 10L53.7614 4.9L51.2314 9.15H50.7714L48.2414 4.93V10H47.2814V3H48.1014L51.0214 7.92L53.9014 3H54.7214L54.7314 10H53.7714ZM62.9403 3V10H61.9603V3.87H57.9003V10H56.9103V3H62.9403ZM69.6732 8.25H65.9532L65.1832 10H64.1532L67.3232 3H68.3132L71.4932 10H70.4432L69.6732 8.25ZM69.3232 7.45L67.8132 4.02L66.3032 7.45H69.3232ZM78.7213 3V10H77.7213V6.88H73.7013V10H72.7013V3H73.7013V6.01H77.7213V3H78.7213ZM80.9045 3H81.8945V8.4L86.0345 3H86.9545V10H85.9745V4.61L81.8245 10H80.9045V3ZM94.2669 3V10H93.2869V7.96H91.3569C91.2369 7.96 91.1469 7.95667 91.0869 7.95L89.6869 10H88.6269L90.1769 7.78C89.6769 7.61333 89.2935 7.33667 89.0269 6.95C88.7602 6.55667 88.6269 6.08 88.6269 5.52C88.6269 4.72667 88.8802 4.11 89.3869 3.67C89.9002 3.22333 90.5902 3 91.4569 3H94.2669ZM89.6369 5.51C89.6369 6.03 89.7869 6.43 90.0869 6.71C90.3935 6.98333 90.8435 7.12 91.4369 7.12H93.2869V3.87H91.4969C90.8969 3.87 90.4369 4.01 90.1169 4.29C89.7969 4.57 89.6369 4.97667 89.6369 5.51Z" transform="translate(58.7612 34.0667)" fill="white"/>
<path d="M7.68659 7.40684H14.7564C14.2814 9.63885 13.8045 11.8736 13.3422 14.108L13.3214 14.1211C12.9061 14.383 12.4451 14.6255 11.9377 14.8477C11.4311 15.0697 10.8771 15.2723 10.2754 15.4549C9.67359 15.6361 9.06774 15.7726 8.45741 15.8633C7.84585 15.9542 7.2278 16 6.60358 16C5.63292 16 4.77507 15.8921 4.03048 15.6759C3.28343 15.4593 2.64918 15.1332 2.12882 14.6982C1.41896 14.1053 0.886403 13.3787 0.531471 12.5198C0.177311 11.6625 0 10.6728 0 9.55205C0 8.04971 0.302462 6.60756 0.906927 5.23351C1.27112 4.40458 1.71139 3.66762 2.22758 3.02461C2.7447 2.38053 3.33852 1.82948 4.00934 1.37328C4.67893 0.914965 5.40824 0.571418 6.1968 0.342791C6.98444 0.114163 7.83149 0 8.73688 0C9.6418 0 10.4578 0.10352 11.1847 0.310105C11.9132 0.517299 12.5518 0.82832 13.1008 1.24301C13.6499 1.65953 14.1068 2.16999 14.4712 2.775C14.8346 3.37865 15.1061 4.07684 15.2848 4.86929L15.299 4.93207C14.2687 5.04562 13.2377 5.16176 12.208 5.28018L12.1939 5.23366C12.0649 4.80666 11.8959 4.4321 11.687 4.11089C11.479 3.79075 11.2308 3.52275 10.9436 3.30781C10.6581 3.09331 10.335 2.93218 9.97528 2.82501C9.61325 2.71708 9.21341 2.66327 8.77685 2.66327C8.26482 2.66327 7.77409 2.7294 7.30589 2.86089C6.8363 2.99268 6.38769 3.1906 5.961 3.45374C5.53385 3.71596 5.15253 4.05009 4.81828 4.45566C4.48279 4.86244 4.19375 5.34159 3.95178 5.89279C3.70996 6.44171 3.52833 7.01845 3.40735 7.62088C3.28574 8.22528 3.22525 8.85538 3.22525 9.50919C3.22525 10.1513 3.2987 10.7086 3.44562 11.181C3.59175 11.6509 3.81104 12.0378 4.10347 12.3415C4.39591 12.6435 4.75609 12.8707 5.18401 13.0222C5.6141 13.1744 6.11378 13.251 6.68337 13.251C7.02441 13.251 7.3707 13.2271 7.72085 13.1802C8.073 13.1329 8.42994 13.0617 8.79058 12.9676C9.15169 12.8716 9.48856 12.7665 9.79982 12.6528C10.1003 12.5432 10.3776 12.4253 10.6302 12.2995L11.0952 10.0915H7.07117C7.25959 9.19664 7.44786 8.30129 7.63906 7.40684H7.68659ZM15.9054 15.652L19.175 0.278337H30.8126L30.2448 2.96304H21.9175L21.1788 6.31508H29.2479L28.68 8.99979H20.5845L19.6904 13.037H28.7263L28.1584 15.7217H15.8908L15.9054 15.652ZM42.8849 15.7217H39.8717L35.7239 5.56535L33.5661 15.7217H30.4728C31.557 10.5725 32.6573 5.42444 33.7571 0.278337H36.8179L40.9763 10.3925L43.1235 0.278337H46.2168C45.1216 5.42566 44.0159 10.5721 42.9326 15.7217H42.8849ZM46.0944 15.652L49.3639 0.278337H61.0014C60.8129 1.17324 60.6248 2.06859 60.4336 2.96304H52.1065L51.3677 6.31508H59.4367C59.2483 7.20999 59.06 8.10534 58.8688 8.99979H50.7735L49.8794 13.037H58.9151C58.7267 13.9319 58.5385 14.8272 58.3473 15.7217H46.0797L46.0944 15.652ZM63.262 15.7217H58.9744L65.9011 7.92688L62.0078 0.278337H65.4772C66.3837 1.933 67.2182 3.50695 68.0665 5.18046C68.0863 5.21421 68.1082 5.25373 68.1312 5.29948L68.1667 5.3723C68.5539 4.912 68.9177 4.48515 69.2565 4.09296C69.6256 3.66549 69.9591 3.28637 70.2555 2.95605L72.6964 0.278337H76.9224L69.7541 8.39721L73.6086 15.7217H69.8693L68.6574 13.4571C68.3488 12.8685 68.0901 12.3611 67.8827 11.9349C67.7019 11.5632 67.5608 11.2552 67.4602 11.0114C67.3165 11.2105 67.0934 11.4878 66.7909 11.843C66.4411 12.2541 65.9832 12.7722 65.4173 13.3974L63.2879 15.7217H63.262ZM81.2093 15.652L84.4789 0.278337H87.7932L85.0804 13.037H93.0088C92.8204 13.9319 92.6321 14.8272 92.4409 15.7217H81.1945L81.2093 15.652ZM95.1576 6.76854L95.6233 4.49549H97.1231L97.4842 2.78351C98.6748 2.05993 99.8714 1.34334 101.065 0.624772L100.267 4.49549H102.11L101.63 6.83771H99.7828L98.8001 11.4796C98.71 11.8993 98.6421 12.2292 98.5967 12.4689C98.5522 12.7044 98.5299 12.8501 98.5299 12.9058C98.5299 13.0145 98.5465 13.1101 98.5803 13.1925C98.6132 13.2732 98.6635 13.3428 98.7308 13.401C98.7976 13.4589 98.893 13.503 99.0166 13.533C99.1445 13.5637 99.303 13.5793 99.4923 13.5793C99.5616 13.5793 99.6863 13.5734 99.8661 13.5606C100.034 13.5486 100.243 13.5313 100.49 13.5083L100.57 13.5011L100.067 15.8342L100.029 15.8416C99.7647 15.8939 99.4965 15.934 99.2257 15.9603C98.9562 15.9865 98.6839 16 98.4095 16C97.8711 16 97.4041 15.9476 97.0103 15.8436C96.6122 15.7384 96.2865 15.5797 96.0352 15.3687C95.7856 15.1577 95.598 14.905 95.4733 14.6121C95.3489 14.3201 95.2866 13.9875 95.2866 13.6158C95.2866 13.4416 95.3214 13.1563 95.3903 12.76C95.4588 12.3663 95.5614 11.8611 95.6972 11.2453L96.649 6.83771H95.1433L95.1576 6.76854ZM112.075 15.7217H109.116L109.346 14.6443C109.114 14.855 108.884 15.0396 108.655 15.1977C108.381 15.3872 108.107 15.5402 107.835 15.656C107.565 15.7702 107.277 15.8563 106.972 15.9138C106.667 15.971 106.345 16 106.005 16C105.414 16 104.878 15.9001 104.398 15.7005C103.918 15.5006 103.494 15.2004 103.125 14.7999C102.757 14.4013 102.481 13.9066 102.298 13.3171C102.115 12.7297 102.023 12.0477 102.023 11.2718C102.023 10.374 102.154 9.51967 102.414 8.70853C102.674 7.89784 103.065 7.12957 103.584 6.40401C104.106 5.67602 104.712 5.12938 105.403 4.76485C106.094 4.39987 106.87 4.2173 107.729 4.2173C108.506 4.2173 109.187 4.36871 109.772 4.67137C110.318 4.95472 110.78 5.37063 111.156 5.91924L112.401 0.278337H115.56C114.415 5.4255 113.284 10.5786 112.122 15.7217H112.075ZM105.096 11.154C105.096 11.5456 105.147 11.8946 105.248 12.2001C105.348 12.5041 105.498 12.7661 105.697 12.9847C105.898 13.202 106.122 13.3652 106.368 13.4738C106.613 13.5819 106.882 13.6363 107.174 13.6363C107.447 13.6363 107.711 13.5909 107.965 13.4998C108.219 13.4089 108.464 13.2718 108.699 13.0888C108.937 12.9055 109.15 12.6724 109.34 12.3909C109.53 12.108 109.696 11.7754 109.84 11.3945C109.983 11.0144 110.091 10.6409 110.163 10.2744C110.234 9.90913 110.27 9.55023 110.27 9.19877C110.27 8.80293 110.216 8.44479 110.108 8.12556C110 7.8077 109.838 7.52709 109.622 7.28523C109.405 7.04323 109.172 6.86127 108.923 6.74011C108.676 6.61987 108.411 6.55937 108.131 6.55937C107.691 6.55937 107.29 6.67855 106.93 6.91721C106.567 7.15678 106.243 7.51812 105.958 8.00046C105.671 8.48644 105.455 8.99219 105.312 9.51739C105.168 10.0424 105.096 10.588 105.096 11.154ZM115.639 12.7159H118.731C118.53 13.718 118.326 14.7204 118.121 15.7217H114.98L115.591 12.7159H115.639Z" transform="translate(58.7612 13.8)" fill="white"/>
</svg>
