<svg width="16" height="10" viewBox="0 0 16 10" fill="none" xmlns="http://www.w3.org/2000/svg">
<path d="M15.4006 0.0124318C15.4006 3.30375 15.4006 10 15.4006 10H0C0 10 0 3.30686 0 0.0124318C0.0711417 0.00932387 0.142283 0 0.216518 0C5.2119 0 10.2073 0 15.2027 0C15.2676 0 15.3357 0.00621592 15.4006 0.0124318ZM1.24962 0.609158C1.3053 0.671317 1.34241 0.71172 1.37953 0.749016C3.29726 2.67594 5.2119 4.59977 7.12964 6.52669C7.49462 6.89343 7.91838 6.89343 8.28337 6.52669C10.2011 4.59666 12.1219 2.66973 14.0428 0.739692C14.0768 0.705505 14.1077 0.668209 14.1603 0.612266C9.84539 0.609158 5.56452 0.609158 1.24962 0.609158ZM10.3125 5.30527C10.2877 5.33946 10.263 5.39229 10.2228 5.42959C9.7093 5.94862 9.19584 6.46453 8.68238 6.98045C8.10397 7.55853 7.30594 7.55853 6.73062 6.98045C6.21717 6.46453 5.70371 5.94862 5.18716 5.4327C5.14695 5.39229 5.10674 5.355 5.08508 5.33635C3.7736 6.65723 2.46831 7.96878 1.17848 9.2648C5.52121 9.2648 9.89488 9.2648 14.25 9.2648C12.9478 7.95324 11.6425 6.6448 10.3125 5.30527ZM0.62481 0.913737C0.62481 3.55239 0.62481 6.20347 0.62481 8.83279C1.94248 7.50881 3.26633 6.1786 4.56544 4.87326C3.26633 3.56793 1.94248 2.23772 0.62481 0.913737ZM10.8383 4.84529C12.1621 6.1755 13.4829 7.50259 14.7758 8.7986C14.7758 6.19725 14.7758 3.54306 14.7758 0.888873C13.4458 2.22218 12.125 3.55239 10.8383 4.84529Z" fill="#4493C9"/>
</svg>
