<svg width="16" height="16" viewBox="0 0 16 16" fill="none" xmlns="http://www.w3.org/2000/svg">
<path d="M6.43297 3.47362C6.43297 2.9473 6.22272 2.42096 5.80219 1.9999L4.33033 0.526317C4.01493 0.210527 3.48928 0 3.06875 0C2.64822 0 2.12256 0.210527 1.80717 0.526317L0.860983 1.47359C0.23019 2.10517 -0.0852097 2.84211 0.0199224 3.68422C0.230187 6.21055 2.75335 9.57893 4.43547 11.2631L4.85599 11.6842C6.43297 13.2632 9.69207 15.7895 12.2152 16C12.3204 16 12.4255 16 12.5306 16C13.2666 16 14.0025 15.6842 14.5282 15.1578L15.4743 14.2106C15.7897 13.8948 16 13.3684 16 12.9473C16 12.5263 15.7897 12 15.4743 11.6842L13.8974 10.1053C13.582 9.78948 13.0563 9.57895 12.6358 9.57895C12.2152 9.57895 11.6896 9.78948 11.3742 10.1053L10.5331 10.9473C10.3229 10.9473 9.27155 10.421 7.58943 8.73679L7.27403 8.42108C5.48679 6.6316 5.17139 5.78939 5.17139 5.68413L5.90731 4.94733C6.22271 4.63154 6.43297 4.1052 6.43297 3.47362ZM5.38165 4.42102L4.64573 5.15781C3.9098 5.89465 5.38165 7.57895 6.74837 9.05264L7.06377 9.36835C8.64075 10.9473 9.79721 11.7895 10.5331 11.7895C10.8485 11.7895 10.9537 11.6842 11.0588 11.579L12.005 10.6316C12.2152 10.4211 12.5306 10.3157 12.7409 10.3157C12.9512 10.3157 13.2666 10.4211 13.4768 10.6316L15.0538 12.2105C15.2641 12.4211 15.3692 12.7368 15.3692 12.9473C15.3692 13.2631 15.2641 13.4737 15.0538 13.6843L14.1076 14.6315C13.6871 15.0526 13.0563 15.2632 12.4255 15.2632C10.1126 15.0527 6.95864 12.6316 5.48679 11.1579L5.06627 10.7368C3.59442 9.26314 1.17637 6.00002 0.966105 3.68422C0.860973 3.05264 1.17638 2.52632 1.5969 2.10527L2.54309 1.15787C2.75335 0.947346 3.06874 0.842031 3.27901 0.842031C3.48927 0.842031 3.80468 0.947346 4.01495 1.15787L5.48679 2.63159C5.69705 2.84211 5.90731 3.15783 5.90731 3.47362C5.90731 3.78941 5.59191 4.21049 5.38165 4.42102Z" fill="white" fill-opacity="0.5"/>
</svg>
