<svg width="15" height="15" viewBox="0 0 15 15" fill="none" xmlns="http://www.w3.org/2000/svg">
<path d="M0.664919 1.16194L0.664918 1.16194C0.143609 1.68335 -0.120959 2.29644 -0.033538 2.99861C0.0532796 4.037 0.614293 5.24231 1.32075 6.35573C2.02825 7.47082 2.88568 8.49998 3.57221 9.18666L3.91424 9.52878C4.55784 10.1725 5.54394 11.0087 6.62675 11.7057C7.70828 12.4019 8.89249 12.9633 9.93106 13.0498L9.93105 13.05H9.93521H9.93571H9.93622H9.93672H9.93722H9.93772H9.93822H9.93872H9.93922H9.93972H9.94022H9.94073H9.94123H9.94173H9.94223H9.94273H9.94323H9.94373H9.94423H9.94473H9.94523H9.94574H9.94624H9.94674H9.94724H9.94774H9.94824H9.94874H9.94924H9.94974H9.95024H9.95075H9.95125H9.95175H9.95225H9.95275H9.95325H9.95375H9.95425H9.95475H9.95526H9.95576H9.95626H9.95676H9.95726H9.95776H9.95826H9.95876H9.95926H9.95976H9.96027H9.96077H9.96127H9.96177H9.96227H9.96277H9.96327H9.96377H9.96427H9.96478H9.96528H9.96578H9.96628H9.96678H9.96728H9.96778H9.96828H9.96878H9.96928H9.96979H9.97029H9.97079H9.97129H9.97179H9.97229H9.97279H9.97329H9.97379H9.97429H9.9748H9.9753H9.9758H9.9763H9.9768H9.9773H9.9778H9.9783H9.9788H9.97931H9.97981H9.98031H9.98081H9.98131H9.98181H9.98231H9.98281H9.98331H9.98381H9.98431H9.98482H9.98532H9.98582H9.98632H9.98682H9.98732H9.98782H9.98832H9.98882H9.98933H9.98983H9.99033H9.99083H9.99133H9.99183H9.99233H9.99283H9.99333H9.99383H9.99434H9.99484H9.99534H9.99584H9.99634H9.99684H9.99734H9.99784H9.99834H9.99885H9.99935H9.99985H10.0003H10.0008H10.0014H10.0019H10.0024H10.0029H10.0034H10.0039H10.0044H10.0049H10.0054H10.0059H10.0064H10.0069H10.0074H10.0079H10.0084H10.0089H10.0094H10.0099H10.0104H10.0109H10.0114H10.0119H10.0124H10.0129H10.0134H10.0139H10.0144H10.0149H10.0154H10.0159H10.0164H10.0169H10.0174H10.0179H10.0184H10.0189H10.0194H10.0199H10.0204H10.0209H10.0214H10.0219H10.0224H10.0229H10.0234H10.0239H10.0244H10.0249H10.0254H10.0259H10.0264H10.0269H10.0274H10.0279H10.0284H10.0289H10.0294H10.0299H10.0304H10.0309H10.0314H10.0319H10.0324H10.0329H10.0334H10.0339H10.0344H10.0349H10.0354H10.0359H10.0364H10.0369H10.0374H10.0379H10.0384H10.0389H10.0394H10.0399H10.0404H10.0409H10.0414H10.0419H10.0424H10.0429H10.0434H10.0439H10.0444H10.0449H10.0454H10.0459H10.0464H10.0469H10.0474H10.0479H10.0484H10.0489H10.0494H10.05H10.0505H10.051H10.0515H10.052H10.0525H10.053H10.0535H10.054H10.0545H10.055H10.0555H10.056H10.0565H10.057H10.0575H10.058H10.0585H10.059H10.0595H10.06H10.0605H10.061H10.0615H10.062H10.0625H10.063H10.0635H10.064H10.0645H10.065H10.0655H10.066H10.0665H10.067H10.0675H10.068H10.0685H10.069H10.0695H10.07H10.0705H10.071H10.0715H10.072H10.0725H10.073H10.0735H10.074H10.0745H10.075H10.0755H10.076H10.0765H10.077H10.0775H10.078H10.0785H10.079H10.0795H10.08H10.0805H10.081H10.0815H10.082H10.0825H10.083H10.0835H10.084H10.0845H10.085H10.0855H10.086H10.0865H10.087H10.0875H10.088H10.0885H10.089H10.0895H10.09H10.0905H10.091H10.0915H10.092H10.0925H10.093H10.0935H10.094H10.0945H10.095H10.0955H10.096H10.0965H10.097H10.0975H10.0981H10.0986H10.0991H10.0996H10.1001H10.1006H10.1011H10.1016H10.1021H10.1026H10.1031H10.1036H10.1041H10.1046H10.1051H10.1056H10.1061H10.1066H10.1071H10.1076H10.1081H10.1086H10.1091H10.1096H10.1101H10.1106H10.1111H10.1116H10.1121H10.1126H10.1131H10.1136H10.1141H10.1146H10.1151H10.1156H10.1161H10.1166H10.1171H10.1176H10.1181H10.1186H10.1191H10.1196H10.1201H10.1206H10.1211H10.1216H10.1221H10.1226H10.1231H10.1236H10.1241H10.1246H10.1251H10.1256H10.1261H10.1266H10.1271H10.1276H10.1281H10.1286H10.1291H10.1296H10.1301H10.1306H10.1311H10.1316H10.1321H10.1326H10.1331H10.1336H10.1341H10.1346H10.1351H10.1356H10.1361H10.1366H10.1371H10.1376H10.1381H10.1386H10.1391H10.1396H10.1401H10.1406H10.1411H10.1416H10.1421H10.1426H10.1431H10.1436H10.1441H10.1446H10.1451H10.1456H10.1461H10.1467H10.1472H10.1477H10.1482H10.1487H10.1492H10.1497H10.1502H10.1507H10.1512H10.1517H10.1522H10.1527H10.1532H10.1537H10.1542H10.1547H10.1552H10.1557H10.1562H10.1567H10.1572H10.1577H10.1582H10.1587H10.1592H10.1597H10.1602H10.1607H10.1612H10.1617H10.1622H10.1627H10.1632H10.1637H10.1642H10.1647H10.1652H10.1657H10.1662H10.1667H10.1672H10.1677H10.1682H10.1687H10.1692H10.1697H10.1702H10.1707H10.1712H10.1717H10.1722H10.1727H10.1732H10.1737H10.1742H10.1747H10.1752H10.1757H10.1762H10.1767H10.1772H10.1777H10.1782H10.1787H10.1792H10.1797H10.1802H10.1807H10.1812H10.1817H10.1822H10.1827H10.1832H10.1837H10.1842H10.1847H10.1852H10.1857H10.1862H10.1867H10.1872H10.1877H10.1882H10.1887H10.1892H10.1897H10.1902H10.1907H10.1912H10.1917C10.8041 13.05 11.4152 12.7877 11.8518 12.3511L12.6213 11.5814L12.586 11.5461L12.6214 11.5814C12.8874 11.3154 13.0635 10.8749 13.0635 10.5197C13.0635 10.1645 12.8874 9.72414 12.6214 9.45808L11.3387 8.17518C11.0727 7.90912 10.6324 7.7329 10.2773 7.7329C9.92211 7.7329 9.4818 7.90912 9.21579 8.17518L8.54829 8.84276C8.53383 8.84029 8.5137 8.83523 8.48726 8.82628C8.44742 8.81279 8.39669 8.79167 8.33521 8.76158C8.21231 8.70142 8.04875 8.60654 7.84712 8.46856C7.44396 8.19266 6.89051 7.74575 6.20819 7.06329L6.20819 7.06329L5.95166 6.80678C5.95166 6.80677 5.95166 6.80677 5.95166 6.80677C5.22646 6.08142 4.80114 5.5493 4.55752 5.18907C4.4357 5.00894 4.35957 4.87218 4.31413 4.77606C4.29139 4.72798 4.27652 4.69047 4.26745 4.6631C4.26383 4.65216 4.26121 4.64309 4.2594 4.63579L4.84005 4.05506L4.80677 4.02179L4.84005 4.05506C5.10788 3.78717 5.28223 3.34573 5.28223 2.82231C5.28223 2.38101 5.10566 1.94076 4.75455 1.58957L4.71919 1.62492L4.75454 1.58957L3.55741 0.39228C3.29141 0.126217 2.8511 -0.05 2.49595 -0.05C2.14081 -0.05 1.7005 0.126216 1.43449 0.39228C1.43449 0.39228 1.43449 0.392281 1.43449 0.392281L0.664919 1.16194ZM3.74323 4.15537L3.77858 4.19072L3.74323 4.15537C3.57836 4.32026 3.54033 4.53691 3.5879 4.77901C3.63512 5.01935 3.76732 5.29023 3.95027 5.57548C4.31647 6.14646 4.89675 6.79107 5.45212 7.38928L5.45209 7.38931L5.45341 7.39062L5.70993 7.64713C5.70993 7.64714 5.70993 7.64714 5.70994 7.64714C6.3521 8.28944 6.91022 8.78351 7.38391 9.11732C7.85561 9.44973 8.25135 9.62894 8.56708 9.62894C8.70101 9.62894 8.79461 9.60659 8.86734 9.57023C8.93878 9.53451 8.9864 9.48687 9.02852 9.44474L9.02998 9.44328L9.79956 8.67352C9.96059 8.51245 10.2041 8.43154 10.3628 8.43154C10.5214 8.43154 10.7649 8.51245 10.926 8.67352L12.2086 9.95642C12.3696 10.1175 12.4505 10.361 12.4505 10.5197C12.4505 10.6422 12.4301 10.742 12.3907 10.8309C12.3511 10.9199 12.2912 11.0005 12.2086 11.0831L11.439 11.8528L11.4744 11.8881L11.439 11.8528C11.109 12.1829 10.6109 12.3509 10.1085 12.3514C9.18087 12.2663 8.07868 11.7377 7.05505 11.0764C6.03203 10.4156 5.09417 9.62673 4.49802 9.03045L4.15599 8.68832C3.56014 8.09235 2.77147 7.1331 2.11067 6.0884C1.44898 5.04229 0.919965 3.91742 0.835572 2.9889L0.835711 2.98889L0.835098 2.98521C0.753476 2.49538 0.99696 2.08319 1.33419 1.74588L2.10377 0.976123C2.2648 0.815057 2.50833 0.73415 2.66697 0.73415C2.82561 0.73415 3.06915 0.815057 3.23018 0.976123L4.4273 2.17352C4.59507 2.34133 4.75469 2.58569 4.75469 2.82231C4.75469 2.93636 4.69667 3.0762 4.61246 3.21307C4.52921 3.34839 4.42484 3.47365 4.34179 3.55672L3.74323 4.15537Z" transform="translate(1 1)" fill="#4493C9" stroke="#4493C9" stroke-width="0.1"/>
</svg>
